G04 #@! TF.GenerationSoftware,KiCad,Pcbnew,(5.0.2)-1*
G04 #@! TF.CreationDate,2021-03-12T16:00:43+02:00*
G04 #@! TF.ProjectId,MAX7219 SMD,4d415837-3231-4392-9053-4d442e6b6963,rev?*
G04 #@! TF.SameCoordinates,Original*
G04 #@! TF.FileFunction,Copper,L2,Bot*
G04 #@! TF.FilePolarity,Positive*
%FSLAX46Y46*%
G04 Gerber Fmt 4.6, Leading zero omitted, Abs format (unit mm)*
G04 Created by KiCad (PCBNEW (5.0.2)-1) date 12.03.2021 16:00:43*
%MOMM*%
%LPD*%
G01*
G04 APERTURE LIST*
G04 #@! TA.AperFunction,ComponentPad*
%ADD10C,1.600000*%
G04 #@! TD*
G04 #@! TA.AperFunction,ComponentPad*
%ADD11R,1.600000X1.600000*%
G04 #@! TD*
G04 #@! TA.AperFunction,ComponentPad*
%ADD12O,1.600000X1.600000*%
G04 #@! TD*
G04 #@! TA.AperFunction,ComponentPad*
%ADD13C,1.500000*%
G04 #@! TD*
G04 #@! TA.AperFunction,ComponentPad*
%ADD14R,1.500000X1.500000*%
G04 #@! TD*
G04 #@! TA.AperFunction,ComponentPad*
%ADD15R,1.700000X1.700000*%
G04 #@! TD*
G04 #@! TA.AperFunction,ComponentPad*
%ADD16O,1.700000X1.700000*%
G04 #@! TD*
G04 #@! TA.AperFunction,SMDPad,CuDef*
%ADD17R,2.000000X0.600000*%
G04 #@! TD*
G04 #@! TA.AperFunction,ViaPad*
%ADD18C,6.000000*%
G04 #@! TD*
G04 #@! TA.AperFunction,ViaPad*
%ADD19C,0.800000*%
G04 #@! TD*
G04 #@! TA.AperFunction,Conductor*
%ADD20C,0.250000*%
G04 #@! TD*
G04 #@! TA.AperFunction,Conductor*
%ADD21C,1.000000*%
G04 #@! TD*
G04 #@! TA.AperFunction,Conductor*
%ADD22C,0.500000*%
G04 #@! TD*
G04 APERTURE END LIST*
D10*
G04 #@! TO.P,C1,2*
G04 #@! TO.N,GNDD*
X152908000Y-97623000D03*
D11*
G04 #@! TO.P,C1,1*
G04 #@! TO.N,+5V*
X152908000Y-95123000D03*
G04 #@! TD*
D12*
G04 #@! TO.P,R1,2*
G04 #@! TO.N,+5V*
X129540000Y-92964000D03*
D10*
G04 #@! TO.P,R1,1*
G04 #@! TO.N,Net-(R1-Pad1)*
X129540000Y-100584000D03*
G04 #@! TD*
D13*
G04 #@! TO.P,U3,12*
G04 #@! TO.N,Net-(U1-Pad8)*
X111633000Y-92075000D03*
G04 #@! TO.P,U3,11*
G04 #@! TO.N,Net-(U1-Pad14)*
X114173000Y-92075000D03*
G04 #@! TO.P,U3,10*
G04 #@! TO.N,Net-(U1-Pad15)*
X116713000Y-92075000D03*
G04 #@! TO.P,U3,9*
G04 #@! TO.N,Net-(U1-Pad5)*
X119253000Y-92075000D03*
G04 #@! TO.P,U3,8*
G04 #@! TO.N,Net-(U1-Pad10)*
X121793000Y-92075000D03*
G04 #@! TO.P,U3,7*
G04 #@! TO.N,Net-(U1-Pad16)*
X124333000Y-92075000D03*
G04 #@! TO.P,U3,6*
G04 #@! TO.N,Net-(U1-Pad3)*
X124333000Y-107315000D03*
G04 #@! TO.P,U3,5*
G04 #@! TO.N,Net-(U1-Pad17)*
X121793000Y-107315000D03*
G04 #@! TO.P,U3,4*
G04 #@! TO.N,Net-(U1-Pad20)*
X119253000Y-107315000D03*
G04 #@! TO.P,U3,3*
G04 #@! TO.N,Net-(U1-Pad22)*
X116713000Y-107315000D03*
G04 #@! TO.P,U3,2*
G04 #@! TO.N,Net-(U1-Pad23)*
X114173000Y-107315000D03*
D14*
G04 #@! TO.P,U3,1*
G04 #@! TO.N,Net-(U1-Pad21)*
X111633000Y-107315000D03*
G04 #@! TD*
D15*
G04 #@! TO.P,J1,1*
G04 #@! TO.N,+5V*
X188341000Y-94310200D03*
D16*
G04 #@! TO.P,J1,2*
G04 #@! TO.N,Net-(J1-Pad2)*
X188341000Y-96850200D03*
G04 #@! TO.P,J1,3*
G04 #@! TO.N,Net-(J1-Pad3)*
X188341000Y-99390200D03*
G04 #@! TO.P,J1,4*
G04 #@! TO.N,Net-(J1-Pad4)*
X188341000Y-101930200D03*
G04 #@! TO.P,J1,5*
G04 #@! TO.N,GNDD*
X188341000Y-104470200D03*
G04 #@! TD*
D14*
G04 #@! TO.P,U2,1*
G04 #@! TO.N,Net-(U1-Pad21)*
X162433000Y-107315000D03*
D13*
G04 #@! TO.P,U2,2*
G04 #@! TO.N,Net-(U1-Pad23)*
X164973000Y-107315000D03*
G04 #@! TO.P,U2,3*
G04 #@! TO.N,Net-(U1-Pad22)*
X167513000Y-107315000D03*
G04 #@! TO.P,U2,4*
G04 #@! TO.N,Net-(U1-Pad20)*
X170053000Y-107315000D03*
G04 #@! TO.P,U2,5*
G04 #@! TO.N,Net-(U1-Pad17)*
X172593000Y-107315000D03*
G04 #@! TO.P,U2,6*
G04 #@! TO.N,Net-(U1-Pad2)*
X175133000Y-107315000D03*
G04 #@! TO.P,U2,7*
G04 #@! TO.N,Net-(U1-Pad16)*
X175133000Y-92075000D03*
G04 #@! TO.P,U2,8*
G04 #@! TO.N,Net-(U1-Pad11)*
X172593000Y-92075000D03*
G04 #@! TO.P,U2,9*
G04 #@! TO.N,Net-(U1-Pad6)*
X170053000Y-92075000D03*
G04 #@! TO.P,U2,10*
G04 #@! TO.N,Net-(U1-Pad15)*
X167513000Y-92075000D03*
G04 #@! TO.P,U2,11*
G04 #@! TO.N,Net-(U1-Pad14)*
X164973000Y-92075000D03*
G04 #@! TO.P,U2,12*
G04 #@! TO.N,Net-(U1-Pad7)*
X162433000Y-92075000D03*
G04 #@! TD*
D17*
G04 #@! TO.P,U1,1*
G04 #@! TO.N,Net-(J1-Pad3)*
X145162000Y-93980000D03*
G04 #@! TO.P,U1,2*
G04 #@! TO.N,Net-(U1-Pad2)*
X145162000Y-95250000D03*
G04 #@! TO.P,U1,3*
G04 #@! TO.N,Net-(U1-Pad3)*
X145162000Y-96520000D03*
G04 #@! TO.P,U1,4*
G04 #@! TO.N,GNDD*
X145162000Y-97790000D03*
G04 #@! TO.P,U1,5*
G04 #@! TO.N,Net-(U1-Pad5)*
X145162000Y-99060000D03*
G04 #@! TO.P,U1,6*
G04 #@! TO.N,Net-(U1-Pad6)*
X145162000Y-100330000D03*
G04 #@! TO.P,U1,7*
G04 #@! TO.N,Net-(U1-Pad7)*
X145162000Y-101600000D03*
G04 #@! TO.P,U1,8*
G04 #@! TO.N,Net-(U1-Pad8)*
X145162000Y-102870000D03*
G04 #@! TO.P,U1,9*
G04 #@! TO.N,GNDD*
X145162000Y-104140000D03*
G04 #@! TO.P,U1,10*
G04 #@! TO.N,Net-(U1-Pad10)*
X145162000Y-105410000D03*
G04 #@! TO.P,U1,11*
G04 #@! TO.N,Net-(U1-Pad11)*
X145162000Y-106680000D03*
G04 #@! TO.P,U1,12*
G04 #@! TO.N,Net-(J1-Pad2)*
X145162000Y-107950000D03*
G04 #@! TO.P,U1,13*
G04 #@! TO.N,Net-(J1-Pad4)*
X135762000Y-107950000D03*
G04 #@! TO.P,U1,14*
G04 #@! TO.N,Net-(U1-Pad14)*
X135762000Y-106680000D03*
G04 #@! TO.P,U1,15*
G04 #@! TO.N,Net-(U1-Pad15)*
X135762000Y-105410000D03*
G04 #@! TO.P,U1,16*
G04 #@! TO.N,Net-(U1-Pad16)*
X135762000Y-104140000D03*
G04 #@! TO.P,U1,17*
G04 #@! TO.N,Net-(U1-Pad17)*
X135762000Y-102870000D03*
G04 #@! TO.P,U1,18*
G04 #@! TO.N,Net-(R1-Pad1)*
X135762000Y-101600000D03*
G04 #@! TO.P,U1,19*
G04 #@! TO.N,+5V*
X135762000Y-100330000D03*
G04 #@! TO.P,U1,20*
G04 #@! TO.N,Net-(U1-Pad20)*
X135762000Y-99060000D03*
G04 #@! TO.P,U1,21*
G04 #@! TO.N,Net-(U1-Pad21)*
X135762000Y-97790000D03*
G04 #@! TO.P,U1,22*
G04 #@! TO.N,Net-(U1-Pad22)*
X135762000Y-96520000D03*
G04 #@! TO.P,U1,23*
G04 #@! TO.N,Net-(U1-Pad23)*
X135762000Y-95250000D03*
G04 #@! TO.P,U1,24*
G04 #@! TO.N,Net-(U1-Pad24)*
X135762000Y-93980000D03*
G04 #@! TD*
D18*
G04 #@! TO.N,*
X182245000Y-99034600D03*
X102819200Y-99187000D03*
D19*
G04 #@! TO.N,+5V*
X137541000Y-100330000D03*
G04 #@! TO.N,Net-(J1-Pad4)*
X145161000Y-92075000D03*
X160401000Y-93853000D03*
X180975000Y-91440000D03*
X138831685Y-98298000D03*
X137668000Y-107860000D03*
G04 #@! TO.N,Net-(U1-Pad2)*
X146942845Y-95320153D03*
G04 #@! TO.N,Net-(U1-Pad3)*
X140076501Y-105414806D03*
X140081000Y-99314000D03*
G04 #@! TO.N,Net-(U1-Pad5)*
X147701000Y-99187000D03*
X148336000Y-94615000D03*
G04 #@! TO.N,Net-(U1-Pad6)*
X147701000Y-100330000D03*
G04 #@! TO.N,Net-(U1-Pad7)*
X148844000Y-99250500D03*
G04 #@! TO.N,Net-(U1-Pad8)*
X142494000Y-101981000D03*
X141605000Y-95123000D03*
G04 #@! TO.N,Net-(U1-Pad10)*
X141732000Y-103632000D03*
X140716000Y-96139000D03*
G04 #@! TO.N,Net-(U1-Pad11)*
X148336000Y-106680000D03*
G04 #@! TO.N,Net-(U1-Pad14)*
X133350000Y-106680000D03*
G04 #@! TO.N,Net-(U1-Pad15)*
X117856000Y-96393000D03*
X127508000Y-105410000D03*
G04 #@! TO.N,Net-(U1-Pad16)*
X159461200Y-91135200D03*
X132715000Y-94361000D03*
X132715000Y-104140000D03*
G04 #@! TO.N,Net-(U1-Pad22)*
X126365000Y-97790000D03*
G04 #@! TD*
D20*
G04 #@! TO.N,+5V*
X135762000Y-100330000D02*
X137541000Y-100330000D01*
D21*
X187248800Y-93218000D02*
X188341000Y-94310200D01*
X180848000Y-93218000D02*
X187248800Y-93218000D01*
X178308000Y-95758000D02*
X180848000Y-93218000D01*
X152908000Y-95123000D02*
X153543000Y-95758000D01*
X153543000Y-95758000D02*
X178308000Y-95758000D01*
G04 #@! TO.N,GNDD*
X152567000Y-97282000D02*
X147955000Y-97282000D01*
X152908000Y-97623000D02*
X152567000Y-97282000D01*
X169708200Y-97623000D02*
X152908000Y-97623000D01*
X176530000Y-104444800D02*
X169708200Y-97623000D01*
X188341000Y-104470200D02*
X188315600Y-104444800D01*
X188315600Y-104444800D02*
X176530000Y-104444800D01*
X152908000Y-98754370D02*
X152908000Y-97623000D01*
X152705630Y-98754370D02*
X152908000Y-98754370D01*
X150749000Y-100711000D02*
X152705630Y-98754370D01*
X150749000Y-103505000D02*
X150749000Y-100711000D01*
X150241000Y-104013000D02*
X150749000Y-103505000D01*
D20*
X146412000Y-97790000D02*
X145162000Y-97790000D01*
X147447000Y-97790000D02*
X146412000Y-97790000D01*
X147955000Y-97282000D02*
X147447000Y-97790000D01*
X146812000Y-104140000D02*
X145162000Y-104140000D01*
X150114000Y-104140000D02*
X145162000Y-104140000D01*
X150241000Y-104013000D02*
X150114000Y-104140000D01*
G04 #@! TO.N,Net-(J1-Pad2)*
X145162000Y-107950000D02*
X154178000Y-107950000D01*
X154178000Y-107950000D02*
X158115000Y-104013000D01*
X158115000Y-104013000D02*
X174117000Y-104013000D01*
X174117000Y-104013000D02*
X176530000Y-106426000D01*
X176530000Y-106426000D02*
X189357000Y-106426000D01*
X189357000Y-106426000D02*
X190119000Y-105664000D01*
X190119000Y-105664000D02*
X190119000Y-97155000D01*
X189814200Y-96850200D02*
X188341000Y-96850200D01*
X190119000Y-97155000D02*
X189814200Y-96850200D01*
G04 #@! TO.N,Net-(J1-Pad3)*
X188264800Y-99314000D02*
X188341000Y-99390200D01*
X187198000Y-99314000D02*
X188264800Y-99314000D01*
X161326999Y-93127999D02*
X162306000Y-94107000D01*
X152717999Y-93127999D02*
X161326999Y-93127999D01*
X189261003Y-95675199D02*
X186899801Y-95675199D01*
X150505997Y-95340001D02*
X152717999Y-93127999D01*
X147987999Y-95340001D02*
X150505997Y-95340001D01*
X145162000Y-93980000D02*
X146627998Y-93980000D01*
X146627998Y-93980000D02*
X147987999Y-95340001D01*
X162306000Y-94107000D02*
X176784000Y-94107000D01*
X176784000Y-94107000D02*
X180176001Y-90714999D01*
X180176001Y-90714999D02*
X189266999Y-90714999D01*
X189266999Y-90714999D02*
X190119000Y-91567000D01*
X186817000Y-98933000D02*
X187198000Y-99314000D01*
X190119000Y-91567000D02*
X190119000Y-94817202D01*
X190119000Y-94817202D02*
X189261003Y-95675199D01*
X186899801Y-95675199D02*
X186817000Y-95758000D01*
X186817000Y-95758000D02*
X186817000Y-98933000D01*
G04 #@! TO.N,Net-(J1-Pad4)*
X138811000Y-98298000D02*
X138831685Y-98298000D01*
X135852000Y-107860000D02*
X135762000Y-107950000D01*
X137668000Y-107860000D02*
X135852000Y-107860000D01*
X144526000Y-92075000D02*
X145161000Y-92075000D01*
X138831685Y-98298000D02*
X142875000Y-98298000D01*
X142875000Y-93726000D02*
X144526000Y-92075000D01*
X142875000Y-98298000D02*
X142875000Y-93726000D01*
X177673000Y-94742000D02*
X180975000Y-91440000D01*
X161855685Y-94742000D02*
X177673000Y-94742000D01*
X160401000Y-93853000D02*
X160966685Y-93853000D01*
X160966685Y-93853000D02*
X161855685Y-94742000D01*
G04 #@! TO.N,Net-(R1-Pad1)*
X130556000Y-101600000D02*
X129540000Y-100584000D01*
X135762000Y-101600000D02*
X130556000Y-101600000D01*
G04 #@! TO.N,Net-(U1-Pad2)*
X145232153Y-95320153D02*
X145162000Y-95250000D01*
X146942845Y-95320153D02*
X145232153Y-95320153D01*
G04 #@! TO.N,Net-(U1-Pad3)*
X124333000Y-107315000D02*
X124333000Y-108375660D01*
X140081000Y-106680000D02*
X137922000Y-108839000D01*
X124796340Y-108839000D02*
X124460000Y-108502660D01*
X124333000Y-108375660D02*
X124460000Y-108502660D01*
X137922000Y-108839000D02*
X124796340Y-108839000D01*
X124460000Y-108502660D02*
X124714000Y-108756660D01*
X140081000Y-105410000D02*
X140081000Y-105410307D01*
X140081000Y-105410307D02*
X140076501Y-105414806D01*
X140076501Y-105414806D02*
X140081000Y-106680000D01*
X140081000Y-99314000D02*
X140646685Y-99314000D01*
X143325010Y-97106990D02*
X143325010Y-98736990D01*
X145162000Y-96520000D02*
X143912000Y-96520000D01*
X143912000Y-96520000D02*
X143325010Y-97106990D01*
X142748000Y-99314000D02*
X141986000Y-99314000D01*
X140646685Y-99314000D02*
X141986000Y-99314000D01*
X143325010Y-98736990D02*
X142748000Y-99314000D01*
X141986000Y-99314000D02*
X142240000Y-99314000D01*
G04 #@! TO.N,Net-(U1-Pad5)*
X119253000Y-91014340D02*
X120840330Y-89427010D01*
X119253000Y-92075000D02*
X119253000Y-91014340D01*
X141097000Y-89427010D02*
X141395410Y-89427010D01*
X120840330Y-89427010D02*
X141097000Y-89427010D01*
X146304000Y-89408000D02*
X141116010Y-89408000D01*
X141116010Y-89408000D02*
X141097000Y-89427010D01*
X148336000Y-91416925D02*
X146454075Y-89535000D01*
X148336000Y-94615000D02*
X148336000Y-91416925D01*
X147129990Y-90106990D02*
X146454075Y-89535000D01*
X146454075Y-89535000D02*
X146304000Y-89408000D01*
X146412000Y-99060000D02*
X145162000Y-99060000D01*
X147008315Y-99060000D02*
X146412000Y-99060000D01*
X147135315Y-99187000D02*
X147008315Y-99060000D01*
X147701000Y-99187000D02*
X147135315Y-99187000D01*
G04 #@! TO.N,Net-(U1-Pad6)*
X147066000Y-100330000D02*
X145162000Y-100330000D01*
X147066000Y-100330000D02*
X147701000Y-100330000D01*
G04 #@! TO.N,Net-(U1-Pad7)*
X148844000Y-101600000D02*
X145162000Y-101600000D01*
X148844000Y-99250500D02*
X148844000Y-101600000D01*
G04 #@! TO.N,Net-(U1-Pad8)*
X111633000Y-92075000D02*
X113665000Y-94107000D01*
X113665000Y-94107000D02*
X118812002Y-94107000D01*
X118812002Y-94107000D02*
X120548400Y-92370602D01*
X120548400Y-92370602D02*
X120548400Y-91084400D01*
X121615200Y-90017600D02*
X141071600Y-90017600D01*
X120548400Y-91084400D02*
X121615200Y-90017600D01*
X145162000Y-102870000D02*
X143383000Y-102870000D01*
X143383000Y-102870000D02*
X142494000Y-101981000D01*
X141605000Y-95123000D02*
X141605000Y-90424000D01*
X141605000Y-90424000D02*
X141351000Y-90170000D01*
X141224000Y-90170000D02*
X141071600Y-90017600D01*
X141351000Y-90170000D02*
X141224000Y-90170000D01*
G04 #@! TO.N,Net-(U1-Pad10)*
X122542999Y-91325001D02*
X121793000Y-92075000D01*
X123190000Y-90678000D02*
X122542999Y-91325001D01*
X140589000Y-90678000D02*
X123190000Y-90678000D01*
X145162000Y-105410000D02*
X143510000Y-105410000D01*
X143510000Y-105410000D02*
X141732000Y-103632000D01*
X140716000Y-96139000D02*
X140716000Y-90678000D01*
X140716000Y-90678000D02*
X140589000Y-90678000D01*
G04 #@! TO.N,Net-(U1-Pad11)*
X145162000Y-106680000D02*
X148336000Y-106680000D01*
G04 #@! TO.N,Net-(U1-Pad14)*
X133350000Y-106680000D02*
X135762000Y-106680000D01*
D22*
G04 #@! TO.N,Net-(U1-Pad15)*
X116713000Y-90424000D02*
X116713000Y-92075000D01*
X110744000Y-96393000D02*
X109855000Y-95504000D01*
X117856000Y-96393000D02*
X110744000Y-96393000D01*
X109855000Y-95504000D02*
X109855000Y-90932000D01*
X109855000Y-90932000D02*
X110617000Y-90170000D01*
X110617000Y-90170000D02*
X116459000Y-90170000D01*
X116459000Y-90170000D02*
X116713000Y-90424000D01*
D20*
X135762000Y-105410000D02*
X134512000Y-105410000D01*
X134512000Y-105410000D02*
X127508000Y-105410000D01*
G04 #@! TO.N,Net-(U1-Pad16)*
X160451800Y-90144600D02*
X159461200Y-91135200D01*
X175133000Y-92075000D02*
X173202600Y-90144600D01*
X173202600Y-90144600D02*
X160451800Y-90144600D01*
X124333000Y-93135660D02*
X125558340Y-94361000D01*
X124333000Y-92075000D02*
X124333000Y-93135660D01*
X125558340Y-94361000D02*
X132715000Y-94361000D01*
X132715000Y-104140000D02*
X135762000Y-104140000D01*
G04 #@! TO.N,Net-(U1-Pad17)*
X135762000Y-102870000D02*
X122682000Y-102870000D01*
X121793000Y-103759000D02*
X121793000Y-104775000D01*
X122682000Y-102870000D02*
X121793000Y-103759000D01*
X135762000Y-102870000D02*
X138557000Y-102870000D01*
X138557000Y-102870000D02*
X140531010Y-104844010D01*
X140531010Y-104844010D02*
X142240000Y-106553000D01*
X143764000Y-108585000D02*
X142240000Y-106553000D01*
X154940000Y-108585000D02*
X143764000Y-108585000D01*
X158413660Y-105111340D02*
X154940000Y-108585000D01*
X172593000Y-107315000D02*
X172593000Y-106254340D01*
X171450000Y-105111340D02*
X158413660Y-105111340D01*
X172593000Y-106254340D02*
X171450000Y-105111340D01*
X121793000Y-104775000D02*
X121793000Y-107315000D01*
D22*
G04 #@! TO.N,Net-(U1-Pad20)*
X119380000Y-107188000D02*
X119253000Y-107315000D01*
D20*
X135762000Y-99060000D02*
X123063000Y-99060000D01*
X119253000Y-99695000D02*
X119253000Y-103378000D01*
X119253000Y-103378000D02*
X119253000Y-107315000D01*
X123063000Y-99060000D02*
X119888000Y-99060000D01*
X119888000Y-99060000D02*
X119253000Y-99695000D01*
X170053000Y-108712000D02*
X170053000Y-107315000D01*
X119253000Y-107315000D02*
X119253000Y-108375660D01*
X119253000Y-108375660D02*
X120166349Y-109289009D01*
X169545000Y-109220000D02*
X170053000Y-108712000D01*
X120166349Y-109289009D02*
X138108400Y-109289010D01*
X138108400Y-109289010D02*
X138177410Y-109220000D01*
X138177410Y-109220000D02*
X169545000Y-109220000D01*
G04 #@! TO.N,Net-(U1-Pad21)*
X114808000Y-109474000D02*
X112649000Y-109474000D01*
X112649000Y-109474000D02*
X111633000Y-108458000D01*
X115443000Y-99187000D02*
X115443000Y-108839000D01*
X111633000Y-108458000D02*
X111633000Y-107315000D01*
X127762000Y-97790000D02*
X127036999Y-98515001D01*
X135762000Y-97790000D02*
X127762000Y-97790000D01*
X127036999Y-98515001D02*
X126016999Y-98515001D01*
X126016999Y-98515001D02*
X125836997Y-98334999D01*
X115443000Y-108839000D02*
X114808000Y-109474000D01*
X125836997Y-98334999D02*
X116295001Y-98334999D01*
X116295001Y-98334999D02*
X115443000Y-99187000D01*
G04 #@! TO.N,Net-(U1-Pad22)*
X135762000Y-96520000D02*
X133223000Y-96520000D01*
X133223000Y-96520000D02*
X127635000Y-96520000D01*
X127635000Y-96520000D02*
X126365000Y-97790000D01*
D22*
G04 #@! TO.N,Net-(U1-Pad23)*
X127381000Y-95250000D02*
X135762000Y-95250000D01*
X125349000Y-97282000D02*
X127381000Y-95250000D01*
X115189000Y-97282000D02*
X125349000Y-97282000D01*
X114173000Y-107315000D02*
X114173000Y-97790000D01*
X114173000Y-97790000D02*
X115189000Y-97282000D01*
G04 #@! TD*
M02*
