G04 #@! TF.GenerationSoftware,KiCad,Pcbnew,(5.1.6)-1*
G04 #@! TF.CreationDate,2020-08-22T14:04:35+03:00*
G04 #@! TF.ProjectId,MAX7219 THT,4d415837-3231-4392-9054-48542e6b6963,rev?*
G04 #@! TF.SameCoordinates,Original*
G04 #@! TF.FileFunction,Legend,Bot*
G04 #@! TF.FilePolarity,Positive*
%FSLAX46Y46*%
G04 Gerber Fmt 4.6, Leading zero omitted, Abs format (unit mm)*
G04 Created by KiCad (PCBNEW (5.1.6)-1) date 2020-08-22 14:04:35*
%MOMM*%
%LPD*%
G01*
G04 APERTURE LIST*
%ADD10C,0.200000*%
%ADD11C,0.120000*%
%ADD12C,0.150000*%
G04 APERTURE END LIST*
D10*
X206787619Y-40076380D02*
X207263809Y-40076380D01*
X207263809Y-39076380D01*
X206311428Y-40076380D02*
X206406666Y-40028761D01*
X206454285Y-39981142D01*
X206501904Y-39885904D01*
X206501904Y-39600190D01*
X206454285Y-39504952D01*
X206406666Y-39457333D01*
X206311428Y-39409714D01*
X206168571Y-39409714D01*
X206073333Y-39457333D01*
X206025714Y-39504952D01*
X205978095Y-39600190D01*
X205978095Y-39885904D01*
X206025714Y-39981142D01*
X206073333Y-40028761D01*
X206168571Y-40076380D01*
X206311428Y-40076380D01*
X205120952Y-40076380D02*
X205120952Y-39552571D01*
X205168571Y-39457333D01*
X205263809Y-39409714D01*
X205454285Y-39409714D01*
X205549523Y-39457333D01*
X205120952Y-40028761D02*
X205216190Y-40076380D01*
X205454285Y-40076380D01*
X205549523Y-40028761D01*
X205597142Y-39933523D01*
X205597142Y-39838285D01*
X205549523Y-39743047D01*
X205454285Y-39695428D01*
X205216190Y-39695428D01*
X205120952Y-39647809D01*
X204216190Y-40076380D02*
X204216190Y-39076380D01*
X204216190Y-40028761D02*
X204311428Y-40076380D01*
X204501904Y-40076380D01*
X204597142Y-40028761D01*
X204644761Y-39981142D01*
X204692380Y-39885904D01*
X204692380Y-39600190D01*
X204644761Y-39504952D01*
X204597142Y-39457333D01*
X204501904Y-39409714D01*
X204311428Y-39409714D01*
X204216190Y-39457333D01*
X207200380Y-42616380D02*
X207200380Y-41616380D01*
X206962285Y-41616380D01*
X206819428Y-41664000D01*
X206724190Y-41759238D01*
X206676571Y-41854476D01*
X206628952Y-42044952D01*
X206628952Y-42187809D01*
X206676571Y-42378285D01*
X206724190Y-42473523D01*
X206819428Y-42568761D01*
X206962285Y-42616380D01*
X207200380Y-42616380D01*
X206200380Y-42616380D02*
X206200380Y-41949714D01*
X206200380Y-41616380D02*
X206248000Y-41664000D01*
X206200380Y-41711619D01*
X206152761Y-41664000D01*
X206200380Y-41616380D01*
X206200380Y-41711619D01*
X205724190Y-41949714D02*
X205724190Y-42616380D01*
X205724190Y-42044952D02*
X205676571Y-41997333D01*
X205581333Y-41949714D01*
X205438476Y-41949714D01*
X205343238Y-41997333D01*
X205295619Y-42092571D01*
X205295619Y-42616380D01*
X206605142Y-37441142D02*
X206652761Y-37488761D01*
X206795619Y-37536380D01*
X206890857Y-37536380D01*
X207033714Y-37488761D01*
X207128952Y-37393523D01*
X207176571Y-37298285D01*
X207224190Y-37107809D01*
X207224190Y-36964952D01*
X207176571Y-36774476D01*
X207128952Y-36679238D01*
X207033714Y-36584000D01*
X206890857Y-36536380D01*
X206795619Y-36536380D01*
X206652761Y-36584000D01*
X206605142Y-36631619D01*
X206033714Y-37536380D02*
X206128952Y-37488761D01*
X206176571Y-37393523D01*
X206176571Y-36536380D01*
X205652761Y-37536380D02*
X205652761Y-36536380D01*
X205557523Y-37155428D02*
X205271809Y-37536380D01*
X205271809Y-36869714D02*
X205652761Y-37250666D01*
X206890857Y-34044000D02*
X206986095Y-33996380D01*
X207128952Y-33996380D01*
X207271809Y-34044000D01*
X207367047Y-34139238D01*
X207414666Y-34234476D01*
X207462285Y-34424952D01*
X207462285Y-34567809D01*
X207414666Y-34758285D01*
X207367047Y-34853523D01*
X207271809Y-34948761D01*
X207128952Y-34996380D01*
X207033714Y-34996380D01*
X206890857Y-34948761D01*
X206843238Y-34901142D01*
X206843238Y-34567809D01*
X207033714Y-34567809D01*
X206414666Y-34329714D02*
X206414666Y-34996380D01*
X206414666Y-34424952D02*
X206367047Y-34377333D01*
X206271809Y-34329714D01*
X206128952Y-34329714D01*
X206033714Y-34377333D01*
X205986095Y-34472571D01*
X205986095Y-34996380D01*
X205081333Y-34996380D02*
X205081333Y-33996380D01*
X205081333Y-34948761D02*
X205176571Y-34996380D01*
X205367047Y-34996380D01*
X205462285Y-34948761D01*
X205509904Y-34901142D01*
X205557523Y-34805904D01*
X205557523Y-34520190D01*
X205509904Y-34424952D01*
X205462285Y-34377333D01*
X205367047Y-34329714D01*
X205176571Y-34329714D01*
X205081333Y-34377333D01*
X207533714Y-44775428D02*
X206771809Y-44775428D01*
X207152761Y-45156380D02*
X207152761Y-44394476D01*
X205819428Y-44156380D02*
X206295619Y-44156380D01*
X206343238Y-44632571D01*
X206295619Y-44584952D01*
X206200380Y-44537333D01*
X205962285Y-44537333D01*
X205867047Y-44584952D01*
X205819428Y-44632571D01*
X205771809Y-44727809D01*
X205771809Y-44965904D01*
X205819428Y-45061142D01*
X205867047Y-45108761D01*
X205962285Y-45156380D01*
X206200380Y-45156380D01*
X206295619Y-45108761D01*
X206343238Y-45061142D01*
X205486095Y-44156380D02*
X205152761Y-45156380D01*
X204819428Y-44156380D01*
D11*
X200346000Y-33214000D02*
X203006000Y-33214000D01*
X200346000Y-43434000D02*
X200346000Y-33214000D01*
X203006000Y-43434000D02*
X203006000Y-33214000D01*
X200346000Y-43434000D02*
X203006000Y-43434000D01*
X200346000Y-44704000D02*
X200346000Y-46034000D01*
X200346000Y-46034000D02*
X201676000Y-46034000D01*
X198257000Y-40998211D02*
X197507000Y-40998211D01*
X197882000Y-41373211D02*
X197882000Y-40623211D01*
X196148000Y-33390000D02*
X195266000Y-33390000D01*
X196400000Y-33430000D02*
X195014000Y-33430000D01*
X196584000Y-33470000D02*
X194830000Y-33470000D01*
X196735000Y-33510000D02*
X194679000Y-33510000D01*
X196865000Y-33550000D02*
X194549000Y-33550000D01*
X196982000Y-33590000D02*
X194432000Y-33590000D01*
X197088000Y-33630000D02*
X194326000Y-33630000D01*
X197185000Y-33670000D02*
X194229000Y-33670000D01*
X197276000Y-33710000D02*
X194138000Y-33710000D01*
X197361000Y-33750000D02*
X194053000Y-33750000D01*
X197440000Y-33790000D02*
X193974000Y-33790000D01*
X197516000Y-33830000D02*
X193898000Y-33830000D01*
X197588000Y-33870000D02*
X193826000Y-33870000D01*
X197656000Y-33910000D02*
X193758000Y-33910000D01*
X197721000Y-33950000D02*
X193693000Y-33950000D01*
X197784000Y-33990000D02*
X193630000Y-33990000D01*
X197844000Y-34030000D02*
X193570000Y-34030000D01*
X197902000Y-34070000D02*
X193512000Y-34070000D01*
X197957000Y-34110000D02*
X193457000Y-34110000D01*
X198011000Y-34150000D02*
X193403000Y-34150000D01*
X198062000Y-34190000D02*
X193352000Y-34190000D01*
X198112000Y-34230000D02*
X193302000Y-34230000D01*
X198161000Y-34270000D02*
X193253000Y-34270000D01*
X198207000Y-34310000D02*
X193207000Y-34310000D01*
X198253000Y-34350000D02*
X193161000Y-34350000D01*
X198296000Y-34390000D02*
X193118000Y-34390000D01*
X198339000Y-34430000D02*
X193075000Y-34430000D01*
X198380000Y-34470000D02*
X193034000Y-34470000D01*
X198420000Y-34510000D02*
X192994000Y-34510000D01*
X198459000Y-34550000D02*
X192955000Y-34550000D01*
X198497000Y-34590000D02*
X192917000Y-34590000D01*
X198534000Y-34630000D02*
X192880000Y-34630000D01*
X198570000Y-34670000D02*
X192844000Y-34670000D01*
X198605000Y-34710000D02*
X192809000Y-34710000D01*
X198638000Y-34750000D02*
X192776000Y-34750000D01*
X198671000Y-34790000D02*
X192743000Y-34790000D01*
X198703000Y-34830000D02*
X192711000Y-34830000D01*
X198735000Y-34870000D02*
X192679000Y-34870000D01*
X198765000Y-34910000D02*
X192649000Y-34910000D01*
X194667000Y-34950000D02*
X192619000Y-34950000D01*
X198795000Y-34950000D02*
X196747000Y-34950000D01*
X194667000Y-34990000D02*
X192591000Y-34990000D01*
X198823000Y-34990000D02*
X196747000Y-34990000D01*
X194667000Y-35030000D02*
X192563000Y-35030000D01*
X198851000Y-35030000D02*
X196747000Y-35030000D01*
X194667000Y-35070000D02*
X192535000Y-35070000D01*
X198879000Y-35070000D02*
X196747000Y-35070000D01*
X194667000Y-35110000D02*
X192509000Y-35110000D01*
X198905000Y-35110000D02*
X196747000Y-35110000D01*
X194667000Y-35150000D02*
X192483000Y-35150000D01*
X198931000Y-35150000D02*
X196747000Y-35150000D01*
X194667000Y-35190000D02*
X192458000Y-35190000D01*
X198956000Y-35190000D02*
X196747000Y-35190000D01*
X194667000Y-35230000D02*
X192433000Y-35230000D01*
X198981000Y-35230000D02*
X196747000Y-35230000D01*
X194667000Y-35270000D02*
X192410000Y-35270000D01*
X199004000Y-35270000D02*
X196747000Y-35270000D01*
X194667000Y-35310000D02*
X192386000Y-35310000D01*
X199028000Y-35310000D02*
X196747000Y-35310000D01*
X194667000Y-35350000D02*
X192364000Y-35350000D01*
X199050000Y-35350000D02*
X196747000Y-35350000D01*
X194667000Y-35390000D02*
X192342000Y-35390000D01*
X199072000Y-35390000D02*
X196747000Y-35390000D01*
X194667000Y-35430000D02*
X192321000Y-35430000D01*
X199093000Y-35430000D02*
X196747000Y-35430000D01*
X194667000Y-35470000D02*
X192300000Y-35470000D01*
X199114000Y-35470000D02*
X196747000Y-35470000D01*
X194667000Y-35510000D02*
X192280000Y-35510000D01*
X199134000Y-35510000D02*
X196747000Y-35510000D01*
X194667000Y-35550000D02*
X192260000Y-35550000D01*
X199154000Y-35550000D02*
X196747000Y-35550000D01*
X194667000Y-35590000D02*
X192241000Y-35590000D01*
X199173000Y-35590000D02*
X196747000Y-35590000D01*
X194667000Y-35630000D02*
X192223000Y-35630000D01*
X199191000Y-35630000D02*
X196747000Y-35630000D01*
X194667000Y-35670000D02*
X192205000Y-35670000D01*
X199209000Y-35670000D02*
X196747000Y-35670000D01*
X194667000Y-35710000D02*
X192187000Y-35710000D01*
X199227000Y-35710000D02*
X196747000Y-35710000D01*
X194667000Y-35750000D02*
X192171000Y-35750000D01*
X199243000Y-35750000D02*
X196747000Y-35750000D01*
X194667000Y-35790000D02*
X192154000Y-35790000D01*
X199260000Y-35790000D02*
X196747000Y-35790000D01*
X194667000Y-35830000D02*
X192139000Y-35830000D01*
X199275000Y-35830000D02*
X196747000Y-35830000D01*
X194667000Y-35870000D02*
X192123000Y-35870000D01*
X199291000Y-35870000D02*
X196747000Y-35870000D01*
X194667000Y-35910000D02*
X192109000Y-35910000D01*
X199305000Y-35910000D02*
X196747000Y-35910000D01*
X194667000Y-35950000D02*
X192094000Y-35950000D01*
X199320000Y-35950000D02*
X196747000Y-35950000D01*
X194667000Y-35990000D02*
X192081000Y-35990000D01*
X199333000Y-35990000D02*
X196747000Y-35990000D01*
X194667000Y-36030000D02*
X192067000Y-36030000D01*
X199347000Y-36030000D02*
X196747000Y-36030000D01*
X194667000Y-36070000D02*
X192054000Y-36070000D01*
X199360000Y-36070000D02*
X196747000Y-36070000D01*
X194667000Y-36110000D02*
X192042000Y-36110000D01*
X199372000Y-36110000D02*
X196747000Y-36110000D01*
X194667000Y-36150000D02*
X192030000Y-36150000D01*
X199384000Y-36150000D02*
X196747000Y-36150000D01*
X194667000Y-36190000D02*
X192019000Y-36190000D01*
X199395000Y-36190000D02*
X196747000Y-36190000D01*
X194667000Y-36230000D02*
X192008000Y-36230000D01*
X199406000Y-36230000D02*
X196747000Y-36230000D01*
X194667000Y-36270000D02*
X191997000Y-36270000D01*
X199417000Y-36270000D02*
X196747000Y-36270000D01*
X194667000Y-36310000D02*
X191987000Y-36310000D01*
X199427000Y-36310000D02*
X196747000Y-36310000D01*
X194667000Y-36350000D02*
X191978000Y-36350000D01*
X199436000Y-36350000D02*
X196747000Y-36350000D01*
X194667000Y-36390000D02*
X191969000Y-36390000D01*
X199445000Y-36390000D02*
X196747000Y-36390000D01*
X194667000Y-36430000D02*
X191960000Y-36430000D01*
X199454000Y-36430000D02*
X196747000Y-36430000D01*
X194667000Y-36470000D02*
X191952000Y-36470000D01*
X199462000Y-36470000D02*
X196747000Y-36470000D01*
X194667000Y-36510000D02*
X191944000Y-36510000D01*
X199470000Y-36510000D02*
X196747000Y-36510000D01*
X194667000Y-36551000D02*
X191937000Y-36551000D01*
X199477000Y-36551000D02*
X196747000Y-36551000D01*
X194667000Y-36591000D02*
X191930000Y-36591000D01*
X199484000Y-36591000D02*
X196747000Y-36591000D01*
X194667000Y-36631000D02*
X191923000Y-36631000D01*
X199491000Y-36631000D02*
X196747000Y-36631000D01*
X194667000Y-36671000D02*
X191917000Y-36671000D01*
X199497000Y-36671000D02*
X196747000Y-36671000D01*
X194667000Y-36711000D02*
X191912000Y-36711000D01*
X199502000Y-36711000D02*
X196747000Y-36711000D01*
X194667000Y-36751000D02*
X191906000Y-36751000D01*
X199508000Y-36751000D02*
X196747000Y-36751000D01*
X194667000Y-36791000D02*
X191902000Y-36791000D01*
X199512000Y-36791000D02*
X196747000Y-36791000D01*
X194667000Y-36831000D02*
X191897000Y-36831000D01*
X199517000Y-36831000D02*
X196747000Y-36831000D01*
X194667000Y-36871000D02*
X191893000Y-36871000D01*
X199521000Y-36871000D02*
X196747000Y-36871000D01*
X194667000Y-36911000D02*
X191890000Y-36911000D01*
X199524000Y-36911000D02*
X196747000Y-36911000D01*
X194667000Y-36951000D02*
X191887000Y-36951000D01*
X199527000Y-36951000D02*
X196747000Y-36951000D01*
X194667000Y-36991000D02*
X191884000Y-36991000D01*
X199530000Y-36991000D02*
X196747000Y-36991000D01*
X199532000Y-37031000D02*
X191882000Y-37031000D01*
X199534000Y-37071000D02*
X191880000Y-37071000D01*
X199536000Y-37111000D02*
X191878000Y-37111000D01*
X199537000Y-37151000D02*
X191877000Y-37151000D01*
X199537000Y-37191000D02*
X191877000Y-37191000D01*
X199537000Y-37231000D02*
X191877000Y-37231000D01*
X199577000Y-37231000D02*
G75*
G03*
X199577000Y-37231000I-3870000J0D01*
G01*
X168251000Y-46101000D02*
X167481000Y-46101000D01*
X160171000Y-46101000D02*
X160941000Y-46101000D01*
X167481000Y-47471000D02*
X160941000Y-47471000D01*
X167481000Y-44731000D02*
X167481000Y-47471000D01*
X160941000Y-44731000D02*
X167481000Y-44731000D01*
X160941000Y-47471000D02*
X160941000Y-44731000D01*
X192528154Y-46316608D02*
G75*
G03*
X195620000Y-48522000I3091846J1064608D01*
G01*
X197103968Y-42338171D02*
G75*
G03*
X192528000Y-44188000I-1483968J-2913829D01*
G01*
X198533387Y-46737202D02*
G75*
G03*
X198534000Y-43768000I-2913387J1485202D01*
G01*
X195563137Y-48522075D02*
G75*
G03*
X197105000Y-48166000I56863J3270075D01*
G01*
X142561000Y-42401000D02*
X142561000Y-40751000D01*
X173161000Y-42401000D02*
X142561000Y-42401000D01*
X173161000Y-37101000D02*
X173161000Y-42401000D01*
X142561000Y-37101000D02*
X173161000Y-37101000D01*
X142561000Y-38751000D02*
X142561000Y-37101000D01*
X142561000Y-40751000D02*
G75*
G03*
X142561000Y-38751000I0J1000000D01*
G01*
D12*
X202009333Y-46486380D02*
X202009333Y-47200666D01*
X202056952Y-47343523D01*
X202152190Y-47438761D01*
X202295047Y-47486380D01*
X202390285Y-47486380D01*
X201009333Y-47486380D02*
X201580761Y-47486380D01*
X201295047Y-47486380D02*
X201295047Y-46486380D01*
X201390285Y-46629238D01*
X201485523Y-46724476D01*
X201580761Y-46772095D01*
X189853866Y-37441142D02*
X189901485Y-37488761D01*
X190044342Y-37536380D01*
X190139580Y-37536380D01*
X190282438Y-37488761D01*
X190377676Y-37393523D01*
X190425295Y-37298285D01*
X190472914Y-37107809D01*
X190472914Y-36964952D01*
X190425295Y-36774476D01*
X190377676Y-36679238D01*
X190282438Y-36584000D01*
X190139580Y-36536380D01*
X190044342Y-36536380D01*
X189901485Y-36584000D01*
X189853866Y-36631619D01*
X188901485Y-37536380D02*
X189472914Y-37536380D01*
X189187200Y-37536380D02*
X189187200Y-36536380D01*
X189282438Y-36679238D01*
X189377676Y-36774476D01*
X189472914Y-36822095D01*
X172124666Y-46629580D02*
X172458000Y-46153390D01*
X172696095Y-46629580D02*
X172696095Y-45629580D01*
X172315142Y-45629580D01*
X172219904Y-45677200D01*
X172172285Y-45724819D01*
X172124666Y-45820057D01*
X172124666Y-45962914D01*
X172172285Y-46058152D01*
X172219904Y-46105771D01*
X172315142Y-46153390D01*
X172696095Y-46153390D01*
X171172285Y-46629580D02*
X171743714Y-46629580D01*
X171458000Y-46629580D02*
X171458000Y-45629580D01*
X171553238Y-45772438D01*
X171648476Y-45867676D01*
X171743714Y-45915295D01*
X190790438Y-45207180D02*
X191123771Y-44730990D01*
X191361866Y-45207180D02*
X191361866Y-44207180D01*
X190980914Y-44207180D01*
X190885676Y-44254800D01*
X190838057Y-44302419D01*
X190790438Y-44397657D01*
X190790438Y-44540514D01*
X190838057Y-44635752D01*
X190885676Y-44683371D01*
X190980914Y-44730990D01*
X191361866Y-44730990D01*
X190504723Y-44207180D02*
X190171390Y-45207180D01*
X189838057Y-44207180D01*
X188980914Y-45207180D02*
X189552342Y-45207180D01*
X189266628Y-45207180D02*
X189266628Y-44207180D01*
X189361866Y-44350038D01*
X189457104Y-44445276D01*
X189552342Y-44492895D01*
X140549380Y-42926095D02*
X141358904Y-42926095D01*
X141454142Y-42973714D01*
X141501761Y-43021333D01*
X141549380Y-43116571D01*
X141549380Y-43307047D01*
X141501761Y-43402285D01*
X141454142Y-43449904D01*
X141358904Y-43497523D01*
X140549380Y-43497523D01*
X141549380Y-44497523D02*
X141549380Y-43926095D01*
X141549380Y-44211809D02*
X140549380Y-44211809D01*
X140692238Y-44116571D01*
X140787476Y-44021333D01*
X140835095Y-43926095D01*
M02*
