G04 #@! TF.GenerationSoftware,KiCad,Pcbnew,(5.1.6)-1*
G04 #@! TF.CreationDate,2020-08-22T14:04:35+03:00*
G04 #@! TF.ProjectId,MAX7219 THT,4d415837-3231-4392-9054-48542e6b6963,rev?*
G04 #@! TF.SameCoordinates,Original*
G04 #@! TF.FileFunction,Copper,L1,Top*
G04 #@! TF.FilePolarity,Positive*
%FSLAX46Y46*%
G04 Gerber Fmt 4.6, Leading zero omitted, Abs format (unit mm)*
G04 Created by KiCad (PCBNEW (5.1.6)-1) date 2020-08-22 14:04:35*
%MOMM*%
%LPD*%
G01*
G04 APERTURE LIST*
G04 #@! TA.AperFunction,ComponentPad*
%ADD10O,1.700000X1.700000*%
G04 #@! TD*
G04 #@! TA.AperFunction,ComponentPad*
%ADD11R,1.700000X1.700000*%
G04 #@! TD*
G04 #@! TA.AperFunction,ComponentPad*
%ADD12C,1.500000*%
G04 #@! TD*
G04 #@! TA.AperFunction,ComponentPad*
%ADD13R,1.500000X1.500000*%
G04 #@! TD*
G04 #@! TA.AperFunction,ComponentPad*
%ADD14R,1.600000X1.600000*%
G04 #@! TD*
G04 #@! TA.AperFunction,ComponentPad*
%ADD15C,1.600000*%
G04 #@! TD*
G04 #@! TA.AperFunction,ComponentPad*
%ADD16O,1.600000X1.600000*%
G04 #@! TD*
G04 #@! TA.AperFunction,ComponentPad*
%ADD17C,1.620000*%
G04 #@! TD*
G04 #@! TA.AperFunction,ViaPad*
%ADD18C,2.500000*%
G04 #@! TD*
G04 #@! TA.AperFunction,ViaPad*
%ADD19C,0.800000*%
G04 #@! TD*
G04 #@! TA.AperFunction,Conductor*
%ADD20C,1.000000*%
G04 #@! TD*
G04 #@! TA.AperFunction,Conductor*
%ADD21C,0.400000*%
G04 #@! TD*
G04 APERTURE END LIST*
D10*
X201676000Y-34544000D03*
X201676000Y-37084000D03*
X201676000Y-39624000D03*
X201676000Y-42164000D03*
D11*
X201676000Y-44704000D03*
D12*
X125984000Y-32385000D03*
X128524000Y-32385000D03*
X131064000Y-32385000D03*
X133604000Y-32385000D03*
X136144000Y-32385000D03*
X138684000Y-32385000D03*
X138684000Y-47625000D03*
X136144000Y-47625000D03*
X133604000Y-47625000D03*
X131064000Y-47625000D03*
X128524000Y-47625000D03*
D13*
X125984000Y-47625000D03*
D14*
X195707000Y-38481000D03*
D15*
X195707000Y-35981000D03*
X159131000Y-46101000D03*
D16*
X169291000Y-46101000D03*
D17*
X198120000Y-42752000D03*
X193120000Y-45252000D03*
X198120000Y-47752000D03*
D14*
X143891000Y-35941000D03*
D16*
X171831000Y-43561000D03*
X146431000Y-35941000D03*
X169291000Y-43561000D03*
X148971000Y-35941000D03*
X166751000Y-43561000D03*
X151511000Y-35941000D03*
X164211000Y-43561000D03*
X154051000Y-35941000D03*
X161671000Y-43561000D03*
X156591000Y-35941000D03*
X159131000Y-43561000D03*
X159131000Y-35941000D03*
X156591000Y-43561000D03*
X161671000Y-35941000D03*
X154051000Y-43561000D03*
X164211000Y-35941000D03*
X151511000Y-43561000D03*
X166751000Y-35941000D03*
X148971000Y-43561000D03*
X169291000Y-35941000D03*
X146431000Y-43561000D03*
X171831000Y-35941000D03*
X143891000Y-43561000D03*
D13*
X176784000Y-47625000D03*
D12*
X179324000Y-47625000D03*
X181864000Y-47625000D03*
X184404000Y-47625000D03*
X186944000Y-47625000D03*
X189484000Y-47625000D03*
X189484000Y-32385000D03*
X186944000Y-32385000D03*
X184404000Y-32385000D03*
X181864000Y-32385000D03*
X179324000Y-32385000D03*
X176784000Y-32385000D03*
D18*
X206248000Y-30988000D03*
X109220000Y-30988000D03*
X109220000Y-47752000D03*
X206248000Y-47752000D03*
D19*
X146405600Y-38811200D03*
X189102998Y-39243000D03*
X174498000Y-33528000D03*
X189484000Y-30353002D03*
X161671000Y-41275002D03*
X186893200Y-41859200D03*
X154051006Y-40424010D03*
X184403996Y-40944800D03*
X176784000Y-42291000D03*
X181737000Y-39624000D03*
X148971010Y-39624000D03*
D20*
X200152000Y-44704000D02*
X202057000Y-44704000D01*
X192452000Y-42752000D02*
X198200000Y-42752000D01*
X156591000Y-46609000D02*
X157988000Y-48006000D01*
X198200000Y-42752000D02*
X200152000Y-44704000D01*
X156591000Y-43561000D02*
X156591000Y-46609000D01*
X157988000Y-48006000D02*
X172415200Y-48006000D01*
X172415200Y-48006000D02*
X175590200Y-44831000D01*
X175590200Y-44831000D02*
X190373000Y-44831000D01*
X190373000Y-44831000D02*
X192452000Y-42752000D01*
X190841000Y-35981000D02*
X195707000Y-35981000D01*
X189357000Y-37465000D02*
X190841000Y-35981000D01*
X164603630Y-37465000D02*
X189357000Y-37465000D01*
X164211000Y-35941000D02*
X164211000Y-37072370D01*
X164211000Y-37072370D02*
X164603630Y-37465000D01*
X199390000Y-34544000D02*
X202057000Y-34544000D01*
X195707000Y-35981000D02*
X197953000Y-35981000D01*
X197953000Y-35981000D02*
X199390000Y-34544000D01*
D21*
X203200000Y-42164000D02*
X202057000Y-42164000D01*
X203573999Y-31234999D02*
X204851000Y-32512000D01*
X204851000Y-32512000D02*
X204851000Y-40513000D01*
X204851000Y-40513000D02*
X203200000Y-42164000D01*
X146920601Y-31234999D02*
X203573999Y-31234999D01*
X143891000Y-34264600D02*
X146920601Y-31234999D01*
X143891000Y-35941000D02*
X143891000Y-34264600D01*
X172962370Y-35941000D02*
X171831000Y-35941000D01*
X173127371Y-36106001D02*
X172962370Y-35941000D01*
X203200000Y-39624000D02*
X203835000Y-38989000D01*
X188810999Y-36106001D02*
X173127371Y-36106001D01*
X202057000Y-39624000D02*
X203200000Y-39624000D01*
X203835000Y-38989000D02*
X203835000Y-33147000D01*
X203835000Y-33147000D02*
X203200000Y-32512000D01*
X203200000Y-32512000D02*
X192405000Y-32512000D01*
X192405000Y-32512000D02*
X188810999Y-36106001D01*
X200787000Y-37084000D02*
X202057000Y-37084000D01*
X196469000Y-41402000D02*
X200787000Y-37084000D01*
X191770000Y-41402000D02*
X196469000Y-41402000D01*
X171831000Y-43561000D02*
X189611000Y-43561000D01*
X189611000Y-43561000D02*
X191770000Y-41402000D01*
X163322000Y-38811200D02*
X146405600Y-38811200D01*
X189102998Y-39243000D02*
X188671198Y-38811200D01*
X188671198Y-38811200D02*
X163322000Y-38811200D01*
X175063685Y-33528000D02*
X174498000Y-33528000D01*
X175190685Y-33655000D02*
X175063685Y-33528000D01*
X181178200Y-33655000D02*
X175190685Y-33655000D01*
X181864000Y-32385000D02*
X181864000Y-32969200D01*
X181864000Y-32969200D02*
X181178200Y-33655000D01*
X164211000Y-43561000D02*
X164211000Y-42926000D01*
X188918315Y-30353002D02*
X189484000Y-30353002D01*
X139572998Y-30353002D02*
X188918315Y-30353002D01*
X138684000Y-32385000D02*
X138684000Y-31242000D01*
X138684000Y-31242000D02*
X139572998Y-30353002D01*
X161105315Y-41275002D02*
X161671000Y-41275002D01*
X161105313Y-41275000D02*
X161105315Y-41275002D01*
X140995400Y-41275000D02*
X161105313Y-41275000D01*
X136144000Y-47625000D02*
X136144000Y-46126400D01*
X136144000Y-46126400D02*
X140995400Y-41275000D01*
X161671000Y-41275002D02*
X180060602Y-41275002D01*
X180060602Y-41275002D02*
X180644800Y-41859200D01*
X180644800Y-41859200D02*
X186327515Y-41859200D01*
X186327515Y-41859200D02*
X186893200Y-41859200D01*
X156565600Y-35915600D02*
X156591000Y-35941000D01*
X156591000Y-34809630D02*
X156591000Y-35941000D01*
X184404000Y-33445660D02*
X183508860Y-34340800D01*
X183508860Y-34340800D02*
X173939200Y-34340800D01*
X173939200Y-34340800D02*
X173532800Y-33934400D01*
X184404000Y-32385000D02*
X184404000Y-33445660D01*
X173532800Y-33934400D02*
X157466230Y-33934400D01*
X157466230Y-33934400D02*
X156591000Y-34809630D01*
X164871400Y-32385000D02*
X176784000Y-32385000D01*
X155244800Y-34798000D02*
X157657800Y-32385000D01*
X155251001Y-35364999D02*
X155244800Y-35358798D01*
X157657800Y-32385000D02*
X164871400Y-32385000D01*
X155251001Y-36517001D02*
X155251001Y-35364999D01*
X159131000Y-35941000D02*
X159131000Y-36703000D01*
X158546800Y-37287200D02*
X155854400Y-37287200D01*
X155244800Y-35358798D02*
X155244800Y-34798000D01*
X159131000Y-36703000D02*
X158546800Y-37287200D01*
X155854400Y-37287200D02*
X155244800Y-36677600D01*
X155244800Y-36677600D02*
X155244800Y-36523202D01*
X155244800Y-36523202D02*
X155251001Y-36517001D01*
X161671000Y-36753800D02*
X161671000Y-35941000D01*
X160475775Y-37949025D02*
X161671000Y-36753800D01*
X130487365Y-37949025D02*
X160475775Y-37949025D01*
X125984000Y-32385000D02*
X125984000Y-33445660D01*
X125984000Y-33445660D02*
X130487365Y-37949025D01*
X154051006Y-40259000D02*
X154051006Y-40424010D01*
X154051004Y-40258998D02*
X154051006Y-40259000D01*
X153924006Y-40386000D02*
X154051000Y-40259006D01*
X149520006Y-40386000D02*
X153924006Y-40386000D01*
X149482004Y-40424002D02*
X149520006Y-40386000D01*
X139357198Y-40424002D02*
X149482004Y-40424002D01*
X133604000Y-47625000D02*
X133604000Y-46177200D01*
X133604000Y-46177200D02*
X139357198Y-40424002D01*
X183838311Y-40944800D02*
X184403996Y-40944800D01*
X181000400Y-40944800D02*
X183838311Y-40944800D01*
X154051000Y-40386000D02*
X180441600Y-40386000D01*
X180441600Y-40386000D02*
X181000400Y-40944800D01*
X151511000Y-42748200D02*
X151511000Y-43561000D01*
X152222200Y-42037000D02*
X151511000Y-42748200D01*
X160274000Y-42037000D02*
X152222200Y-42037000D01*
X176784000Y-42291000D02*
X160528000Y-42291000D01*
X160528000Y-42291000D02*
X160274000Y-42037000D01*
X181737000Y-39624000D02*
X148971010Y-39624000D01*
X148405325Y-39624000D02*
X148971010Y-39624000D01*
X137617200Y-39624000D02*
X148405325Y-39624000D01*
X131064000Y-47625000D02*
X131064000Y-46177200D01*
X131064000Y-46177200D02*
X137617200Y-39624000D01*
X170090999Y-35141001D02*
X169291000Y-35941000D01*
X186944000Y-32385000D02*
X186944000Y-33477200D01*
X185115200Y-35306000D02*
X173532800Y-35306000D01*
X173532800Y-35306000D02*
X172967799Y-34740999D01*
X186944000Y-33477200D02*
X185115200Y-35306000D01*
X172967799Y-34740999D02*
X170491001Y-34740999D01*
X170491001Y-34740999D02*
X170090999Y-35141001D01*
X128524000Y-49022000D02*
X128524000Y-47625000D01*
X128905000Y-49403000D02*
X128524000Y-49022000D01*
X178587400Y-49403000D02*
X128905000Y-49403000D01*
X179324000Y-47625000D02*
X179324000Y-48666400D01*
X179324000Y-48666400D02*
X178587400Y-49403000D01*
M02*
