G04 #@! TF.GenerationSoftware,KiCad,Pcbnew,(5.1.6)-1*
G04 #@! TF.CreationDate,2020-08-22T14:04:35+03:00*
G04 #@! TF.ProjectId,MAX7219 THT,4d415837-3231-4392-9054-48542e6b6963,rev?*
G04 #@! TF.SameCoordinates,Original*
G04 #@! TF.FileFunction,Copper,L2,Bot*
G04 #@! TF.FilePolarity,Positive*
%FSLAX46Y46*%
G04 Gerber Fmt 4.6, Leading zero omitted, Abs format (unit mm)*
G04 Created by KiCad (PCBNEW (5.1.6)-1) date 2020-08-22 14:04:35*
%MOMM*%
%LPD*%
G01*
G04 APERTURE LIST*
G04 #@! TA.AperFunction,ComponentPad*
%ADD10O,1.700000X1.700000*%
G04 #@! TD*
G04 #@! TA.AperFunction,ComponentPad*
%ADD11R,1.700000X1.700000*%
G04 #@! TD*
G04 #@! TA.AperFunction,ComponentPad*
%ADD12C,1.500000*%
G04 #@! TD*
G04 #@! TA.AperFunction,ComponentPad*
%ADD13R,1.500000X1.500000*%
G04 #@! TD*
G04 #@! TA.AperFunction,ComponentPad*
%ADD14R,1.600000X1.600000*%
G04 #@! TD*
G04 #@! TA.AperFunction,ComponentPad*
%ADD15C,1.600000*%
G04 #@! TD*
G04 #@! TA.AperFunction,ComponentPad*
%ADD16O,1.600000X1.600000*%
G04 #@! TD*
G04 #@! TA.AperFunction,ComponentPad*
%ADD17C,1.620000*%
G04 #@! TD*
G04 #@! TA.AperFunction,ViaPad*
%ADD18C,2.500000*%
G04 #@! TD*
G04 #@! TA.AperFunction,ViaPad*
%ADD19C,0.800000*%
G04 #@! TD*
G04 #@! TA.AperFunction,Conductor*
%ADD20C,1.000000*%
G04 #@! TD*
G04 #@! TA.AperFunction,Conductor*
%ADD21C,0.400000*%
G04 #@! TD*
G04 APERTURE END LIST*
D10*
X201676000Y-34544000D03*
X201676000Y-37084000D03*
X201676000Y-39624000D03*
X201676000Y-42164000D03*
D11*
X201676000Y-44704000D03*
D12*
X125984000Y-32385000D03*
X128524000Y-32385000D03*
X131064000Y-32385000D03*
X133604000Y-32385000D03*
X136144000Y-32385000D03*
X138684000Y-32385000D03*
X138684000Y-47625000D03*
X136144000Y-47625000D03*
X133604000Y-47625000D03*
X131064000Y-47625000D03*
X128524000Y-47625000D03*
D13*
X125984000Y-47625000D03*
D14*
X195707000Y-38481000D03*
D15*
X195707000Y-35981000D03*
X159131000Y-46101000D03*
D16*
X169291000Y-46101000D03*
D17*
X198120000Y-42752000D03*
X193120000Y-45252000D03*
X198120000Y-47752000D03*
D14*
X143891000Y-35941000D03*
D16*
X171831000Y-43561000D03*
X146431000Y-35941000D03*
X169291000Y-43561000D03*
X148971000Y-35941000D03*
X166751000Y-43561000D03*
X151511000Y-35941000D03*
X164211000Y-43561000D03*
X154051000Y-35941000D03*
X161671000Y-43561000D03*
X156591000Y-35941000D03*
X159131000Y-43561000D03*
X159131000Y-35941000D03*
X156591000Y-43561000D03*
X161671000Y-35941000D03*
X154051000Y-43561000D03*
X164211000Y-35941000D03*
X151511000Y-43561000D03*
X166751000Y-35941000D03*
X148971000Y-43561000D03*
X169291000Y-35941000D03*
X146431000Y-43561000D03*
X171831000Y-35941000D03*
X143891000Y-43561000D03*
D13*
X176784000Y-47625000D03*
D12*
X179324000Y-47625000D03*
X181864000Y-47625000D03*
X184404000Y-47625000D03*
X186944000Y-47625000D03*
X189484000Y-47625000D03*
X189484000Y-32385000D03*
X186944000Y-32385000D03*
X184404000Y-32385000D03*
X181864000Y-32385000D03*
X179324000Y-32385000D03*
X176784000Y-32385000D03*
D18*
X206248000Y-30988000D03*
X109220000Y-30988000D03*
X109220000Y-47752000D03*
X206248000Y-47752000D03*
D19*
X146405600Y-38811200D03*
X189102998Y-39243000D03*
X174498000Y-33528000D03*
X189484000Y-30353002D03*
X161671000Y-41275002D03*
X186893200Y-41859200D03*
X154051006Y-40424010D03*
X184403996Y-40944800D03*
X176784000Y-42291000D03*
X181737000Y-39624000D03*
X148971010Y-39624000D03*
D20*
X198120000Y-39624000D02*
X198120000Y-42752000D01*
X195707000Y-38481000D02*
X196977000Y-38481000D01*
X196977000Y-38481000D02*
X198120000Y-39624000D01*
X151511000Y-35941000D02*
X151511000Y-34544000D01*
X151511000Y-34544000D02*
X152146000Y-33909000D01*
X152146000Y-33909000D02*
X163703000Y-33909000D01*
X164211000Y-34417000D02*
X164211000Y-35941000D01*
X163703000Y-33909000D02*
X164211000Y-34417000D01*
D21*
X159131000Y-43561000D02*
X159131000Y-46101000D01*
X193120000Y-47545000D02*
X193120000Y-45252000D01*
X193167000Y-47592000D02*
X193120000Y-47545000D01*
X198120000Y-47752000D02*
X193167000Y-47752000D01*
X193167000Y-47752000D02*
X193167000Y-47592000D01*
X193120000Y-47799000D02*
X193120000Y-47545000D01*
X191516000Y-49403000D02*
X193120000Y-47799000D01*
X170561000Y-49403000D02*
X191516000Y-49403000D01*
X169291000Y-46101000D02*
X169291000Y-48133000D01*
X169291000Y-48133000D02*
X170561000Y-49403000D01*
X189484000Y-39624002D02*
X189102998Y-39243000D01*
X189484000Y-47625000D02*
X189484000Y-39624002D01*
X146431000Y-38785800D02*
X146405600Y-38811200D01*
X146431000Y-35941000D02*
X146431000Y-38785800D01*
X169291000Y-42443400D02*
X169291000Y-43561000D01*
X170967400Y-40767000D02*
X169291000Y-42443400D01*
X172212000Y-40767000D02*
X170967400Y-40767000D01*
X179324000Y-32385000D02*
X179324000Y-33655000D01*
X179324000Y-33655000D02*
X172212000Y-40767000D01*
X179324000Y-30988000D02*
X179324000Y-32385000D01*
X178275010Y-29939010D02*
X179324000Y-30988000D01*
X128524000Y-32385000D02*
X130969990Y-29939010D01*
X130969990Y-29939010D02*
X178275010Y-29939010D01*
X150241000Y-47625000D02*
X138684000Y-47625000D01*
X152711001Y-45154999D02*
X150241000Y-47625000D01*
X152711001Y-41205001D02*
X152711001Y-45154999D01*
X148971000Y-35941000D02*
X148971000Y-37465000D01*
X148971000Y-37465000D02*
X152711001Y-41205001D01*
X166751000Y-43561000D02*
X174498000Y-35814000D01*
X174498000Y-34093685D02*
X174498000Y-33528000D01*
X174498000Y-35814000D02*
X174498000Y-34093685D01*
X174098001Y-33128001D02*
X174498000Y-33528000D01*
X171551600Y-30581600D02*
X174098001Y-33128001D01*
X131064000Y-32385000D02*
X132867400Y-30581600D01*
X132867400Y-30581600D02*
X171551600Y-30581600D01*
X189484000Y-32385000D02*
X189484000Y-30353002D01*
X164211000Y-44272200D02*
X164211000Y-43561000D01*
X164839799Y-44900999D02*
X164211000Y-44272200D01*
X184175400Y-37693600D02*
X177038000Y-37693600D01*
X189484000Y-32385000D02*
X184175400Y-37693600D01*
X170586400Y-44297600D02*
X169983001Y-44900999D01*
X177038000Y-37693600D02*
X172669200Y-42062400D01*
X169983001Y-44900999D02*
X164839799Y-44900999D01*
X172669200Y-42062400D02*
X171553598Y-42062400D01*
X171553598Y-42062400D02*
X170586400Y-43029598D01*
X170586400Y-43029598D02*
X170586400Y-44297600D01*
X133604000Y-33477200D02*
X133604000Y-32385000D01*
X134061200Y-33934400D02*
X133604000Y-33477200D01*
X152755600Y-37236400D02*
X150876000Y-37236400D01*
X154051000Y-35941000D02*
X152755600Y-37236400D01*
X150876000Y-37236400D02*
X150310999Y-36671399D01*
X150310999Y-36671399D02*
X150310999Y-34639399D01*
X150310999Y-34639399D02*
X149606000Y-33934400D01*
X149606000Y-33934400D02*
X134061200Y-33934400D01*
X161671000Y-43561000D02*
X161671000Y-41275002D01*
X186893200Y-47574200D02*
X186944000Y-47625000D01*
X186893200Y-41859200D02*
X186893200Y-47574200D01*
X154051000Y-43561000D02*
X154051000Y-40424016D01*
X154051000Y-40424016D02*
X154051006Y-40424010D01*
X184404000Y-40944804D02*
X184403996Y-40944800D01*
X184404000Y-47625000D02*
X184404000Y-40944804D01*
X176784000Y-47625000D02*
X176784000Y-42291000D01*
X125984000Y-46475000D02*
X125984000Y-47625000D01*
X126319998Y-46139002D02*
X125984000Y-46475000D01*
X150075998Y-46139002D02*
X126319998Y-46139002D01*
X151511000Y-43561000D02*
X151511000Y-44704000D01*
X151511000Y-44704000D02*
X150075998Y-46139002D01*
X166751000Y-34809630D02*
X166751000Y-35941000D01*
X164250170Y-32308800D02*
X166751000Y-34809630D01*
X141630400Y-32308800D02*
X164250170Y-32308800D01*
X140556599Y-31234999D02*
X141630400Y-32308800D01*
X136144000Y-32385000D02*
X137294001Y-31234999D01*
X137294001Y-31234999D02*
X140556599Y-31234999D01*
X181864000Y-47625000D02*
X181864000Y-39751000D01*
X181864000Y-39751000D02*
X181737000Y-39624000D01*
X148971000Y-39624010D02*
X148971010Y-39624000D01*
X148971000Y-43561000D02*
X148971000Y-39624010D01*
X145923006Y-45084994D02*
X146431000Y-44577000D01*
X128524000Y-49149000D02*
X128270000Y-49403000D01*
X128524000Y-47625000D02*
X128524000Y-49149000D01*
X146431000Y-44577000D02*
X146431000Y-43561000D01*
X128270000Y-49403000D02*
X124714000Y-49403000D01*
X124714000Y-49403000D02*
X124206000Y-48895000D01*
X124968006Y-45084994D02*
X145923006Y-45084994D01*
X124206000Y-48895000D02*
X124206000Y-45847000D01*
X124206000Y-45847000D02*
X124968006Y-45084994D01*
M02*
