M48
; DRILL file {KiCad (5.1.6)-1} date 08/22/20 14:04:56
; FORMAT={-:-/ absolute / inch / decimal}
; #@! TF.CreationDate,2020-08-22T14:04:56+03:00
; #@! TF.GenerationSoftware,Kicad,Pcbnew,(5.1.6)-1
; #@! TF.FileFunction,Plated,1,2,PTH
FMAT,2
INCH
T1C0.0157
T2C0.0315
T3C0.0354
T4C0.0394
%
G90
G05
T1
X5.764Y-1.528
X5.865Y-1.56
X6.065Y-1.5915
X6.365Y-1.625
X6.87Y-1.32
X6.96Y-1.665
X7.155Y-1.56
X7.26Y-1.612
X7.358Y-1.648
X7.445Y-1.545
X7.46Y-1.195
T2
X7.705Y-1.4166
X7.705Y-1.515
X6.265Y-1.815
X6.665Y-1.815
X5.665Y-1.415
X5.665Y-1.715
X5.765Y-1.415
X5.765Y-1.715
X5.865Y-1.415
X5.865Y-1.715
X5.965Y-1.415
X5.965Y-1.715
X6.065Y-1.415
X6.065Y-1.715
X6.165Y-1.415
X6.165Y-1.715
X6.265Y-1.415
X6.265Y-1.715
X6.365Y-1.415
X6.365Y-1.715
X6.465Y-1.415
X6.465Y-1.715
X6.565Y-1.415
X6.565Y-1.715
X6.665Y-1.415
X6.665Y-1.715
X6.765Y-1.415
X6.765Y-1.715
T3
X7.6031Y-1.7816
X7.8Y-1.6831
X7.8Y-1.88
T4
X4.3Y-1.22
X4.3Y-1.88
X8.12Y-1.22
X8.12Y-1.88
X4.96Y-1.275
X4.96Y-1.875
X5.06Y-1.275
X5.06Y-1.875
X5.16Y-1.275
X5.16Y-1.875
X5.26Y-1.275
X5.26Y-1.875
X5.36Y-1.275
X5.36Y-1.875
X5.46Y-1.275
X5.46Y-1.875
X7.94Y-1.36
X7.94Y-1.46
X7.94Y-1.56
X7.94Y-1.66
X7.94Y-1.76
X6.96Y-1.275
X6.96Y-1.875
X7.06Y-1.275
X7.06Y-1.875
X7.16Y-1.275
X7.16Y-1.875
X7.26Y-1.275
X7.26Y-1.875
X7.36Y-1.275
X7.36Y-1.875
X7.46Y-1.275
X7.46Y-1.875
T0
M30
