G04 #@! TF.GenerationSoftware,KiCad,Pcbnew,(5.0.2)-1*
G04 #@! TF.CreationDate,2021-03-12T16:00:43+02:00*
G04 #@! TF.ProjectId,MAX7219 SMD,4d415837-3231-4392-9053-4d442e6b6963,rev?*
G04 #@! TF.SameCoordinates,Original*
G04 #@! TF.FileFunction,Copper,L1,Top*
G04 #@! TF.FilePolarity,Positive*
%FSLAX46Y46*%
G04 Gerber Fmt 4.6, Leading zero omitted, Abs format (unit mm)*
G04 Created by KiCad (PCBNEW (5.0.2)-1) date 12.03.2021 16:00:43*
%MOMM*%
%LPD*%
G01*
G04 APERTURE LIST*
G04 #@! TA.AperFunction,ComponentPad*
%ADD10C,1.600000*%
G04 #@! TD*
G04 #@! TA.AperFunction,ComponentPad*
%ADD11R,1.600000X1.600000*%
G04 #@! TD*
G04 #@! TA.AperFunction,ComponentPad*
%ADD12O,1.600000X1.600000*%
G04 #@! TD*
G04 #@! TA.AperFunction,ComponentPad*
%ADD13C,1.500000*%
G04 #@! TD*
G04 #@! TA.AperFunction,ComponentPad*
%ADD14R,1.500000X1.500000*%
G04 #@! TD*
G04 #@! TA.AperFunction,ComponentPad*
%ADD15R,1.700000X1.700000*%
G04 #@! TD*
G04 #@! TA.AperFunction,ComponentPad*
%ADD16O,1.700000X1.700000*%
G04 #@! TD*
G04 #@! TA.AperFunction,ViaPad*
%ADD17C,6.000000*%
G04 #@! TD*
G04 #@! TA.AperFunction,ViaPad*
%ADD18C,0.800000*%
G04 #@! TD*
G04 #@! TA.AperFunction,Conductor*
%ADD19C,1.000000*%
G04 #@! TD*
G04 #@! TA.AperFunction,Conductor*
%ADD20C,0.500000*%
G04 #@! TD*
G04 #@! TA.AperFunction,Conductor*
%ADD21C,0.250000*%
G04 #@! TD*
G04 APERTURE END LIST*
D10*
G04 #@! TO.P,C1,2*
G04 #@! TO.N,GNDD*
X152908000Y-97623000D03*
D11*
G04 #@! TO.P,C1,1*
G04 #@! TO.N,+5V*
X152908000Y-95123000D03*
G04 #@! TD*
D12*
G04 #@! TO.P,R1,2*
G04 #@! TO.N,+5V*
X129540000Y-92964000D03*
D10*
G04 #@! TO.P,R1,1*
G04 #@! TO.N,Net-(R1-Pad1)*
X129540000Y-100584000D03*
G04 #@! TD*
D13*
G04 #@! TO.P,U3,12*
G04 #@! TO.N,Net-(U1-Pad8)*
X111633000Y-92075000D03*
G04 #@! TO.P,U3,11*
G04 #@! TO.N,Net-(U1-Pad14)*
X114173000Y-92075000D03*
G04 #@! TO.P,U3,10*
G04 #@! TO.N,Net-(U1-Pad15)*
X116713000Y-92075000D03*
G04 #@! TO.P,U3,9*
G04 #@! TO.N,Net-(U1-Pad5)*
X119253000Y-92075000D03*
G04 #@! TO.P,U3,8*
G04 #@! TO.N,Net-(U1-Pad10)*
X121793000Y-92075000D03*
G04 #@! TO.P,U3,7*
G04 #@! TO.N,Net-(U1-Pad16)*
X124333000Y-92075000D03*
G04 #@! TO.P,U3,6*
G04 #@! TO.N,Net-(U1-Pad3)*
X124333000Y-107315000D03*
G04 #@! TO.P,U3,5*
G04 #@! TO.N,Net-(U1-Pad17)*
X121793000Y-107315000D03*
G04 #@! TO.P,U3,4*
G04 #@! TO.N,Net-(U1-Pad20)*
X119253000Y-107315000D03*
G04 #@! TO.P,U3,3*
G04 #@! TO.N,Net-(U1-Pad22)*
X116713000Y-107315000D03*
G04 #@! TO.P,U3,2*
G04 #@! TO.N,Net-(U1-Pad23)*
X114173000Y-107315000D03*
D14*
G04 #@! TO.P,U3,1*
G04 #@! TO.N,Net-(U1-Pad21)*
X111633000Y-107315000D03*
G04 #@! TD*
D15*
G04 #@! TO.P,J1,1*
G04 #@! TO.N,+5V*
X188341000Y-94310200D03*
D16*
G04 #@! TO.P,J1,2*
G04 #@! TO.N,Net-(J1-Pad2)*
X188341000Y-96850200D03*
G04 #@! TO.P,J1,3*
G04 #@! TO.N,Net-(J1-Pad3)*
X188341000Y-99390200D03*
G04 #@! TO.P,J1,4*
G04 #@! TO.N,Net-(J1-Pad4)*
X188341000Y-101930200D03*
G04 #@! TO.P,J1,5*
G04 #@! TO.N,GNDD*
X188341000Y-104470200D03*
G04 #@! TD*
D14*
G04 #@! TO.P,U2,1*
G04 #@! TO.N,Net-(U1-Pad21)*
X162433000Y-107315000D03*
D13*
G04 #@! TO.P,U2,2*
G04 #@! TO.N,Net-(U1-Pad23)*
X164973000Y-107315000D03*
G04 #@! TO.P,U2,3*
G04 #@! TO.N,Net-(U1-Pad22)*
X167513000Y-107315000D03*
G04 #@! TO.P,U2,4*
G04 #@! TO.N,Net-(U1-Pad20)*
X170053000Y-107315000D03*
G04 #@! TO.P,U2,5*
G04 #@! TO.N,Net-(U1-Pad17)*
X172593000Y-107315000D03*
G04 #@! TO.P,U2,6*
G04 #@! TO.N,Net-(U1-Pad2)*
X175133000Y-107315000D03*
G04 #@! TO.P,U2,7*
G04 #@! TO.N,Net-(U1-Pad16)*
X175133000Y-92075000D03*
G04 #@! TO.P,U2,8*
G04 #@! TO.N,Net-(U1-Pad11)*
X172593000Y-92075000D03*
G04 #@! TO.P,U2,9*
G04 #@! TO.N,Net-(U1-Pad6)*
X170053000Y-92075000D03*
G04 #@! TO.P,U2,10*
G04 #@! TO.N,Net-(U1-Pad15)*
X167513000Y-92075000D03*
G04 #@! TO.P,U2,11*
G04 #@! TO.N,Net-(U1-Pad14)*
X164973000Y-92075000D03*
G04 #@! TO.P,U2,12*
G04 #@! TO.N,Net-(U1-Pad7)*
X162433000Y-92075000D03*
G04 #@! TD*
D17*
G04 #@! TO.N,*
X182245000Y-99034600D03*
X102819200Y-99187000D03*
D18*
G04 #@! TO.N,+5V*
X137541000Y-100330000D03*
G04 #@! TO.N,Net-(J1-Pad4)*
X145161000Y-92075000D03*
X160401000Y-93853000D03*
X180975000Y-91440000D03*
X138831685Y-98298000D03*
X137668000Y-107860000D03*
G04 #@! TO.N,Net-(U1-Pad2)*
X146942845Y-95320153D03*
G04 #@! TO.N,Net-(U1-Pad3)*
X140076501Y-105414806D03*
X140081000Y-99314000D03*
G04 #@! TO.N,Net-(U1-Pad5)*
X147701000Y-99187000D03*
X148336000Y-94615000D03*
G04 #@! TO.N,Net-(U1-Pad6)*
X147701000Y-100330000D03*
G04 #@! TO.N,Net-(U1-Pad7)*
X148844000Y-99250500D03*
G04 #@! TO.N,Net-(U1-Pad8)*
X142494000Y-101981000D03*
X141605000Y-95123000D03*
G04 #@! TO.N,Net-(U1-Pad10)*
X141732000Y-103632000D03*
X140716000Y-96139000D03*
G04 #@! TO.N,Net-(U1-Pad11)*
X148336000Y-106680000D03*
G04 #@! TO.N,Net-(U1-Pad14)*
X133350000Y-106680000D03*
G04 #@! TO.N,Net-(U1-Pad15)*
X117856000Y-96393000D03*
X127508000Y-105410000D03*
G04 #@! TO.N,Net-(U1-Pad16)*
X159461200Y-91135200D03*
X132715000Y-94361000D03*
X132715000Y-104140000D03*
G04 #@! TO.N,Net-(U1-Pad22)*
X126365000Y-97790000D03*
G04 #@! TD*
D19*
G04 #@! TO.N,+5V*
X152908000Y-95123000D02*
X151384000Y-95123000D01*
D20*
X148832002Y-92964000D02*
X150991002Y-95123000D01*
X142621000Y-92964000D02*
X148832002Y-92964000D01*
X150991002Y-95123000D02*
X151384000Y-95123000D01*
X141681200Y-92024200D02*
X142621000Y-92964000D01*
X139954000Y-92024200D02*
X141681200Y-92024200D01*
D21*
X129540000Y-92583000D02*
X129540000Y-92964000D01*
D20*
X129540000Y-92964000D02*
X129540000Y-92329000D01*
X129844800Y-92024200D02*
X130312800Y-92024200D01*
X129540000Y-92329000D02*
X129844800Y-92024200D01*
D21*
X137541000Y-100330000D02*
X138106685Y-100330000D01*
X138106685Y-92093515D02*
X138176000Y-92024200D01*
D20*
X130312800Y-92024200D02*
X138176000Y-92024200D01*
D21*
X138106685Y-100330000D02*
X138106685Y-92093515D01*
D20*
X138176000Y-92024200D02*
X139954000Y-92024200D01*
D21*
G04 #@! TO.N,Net-(J1-Pad3)*
X188341000Y-99390200D02*
X187858400Y-99390200D01*
G04 #@! TO.N,Net-(J1-Pad4)*
X145161000Y-92075000D02*
X158623000Y-92075000D01*
X158623000Y-92075000D02*
X160401000Y-93853000D01*
X180975000Y-91440000D02*
X190373000Y-91440000D01*
X190373000Y-91440000D02*
X191389000Y-92456000D01*
X191389000Y-92456000D02*
X191389000Y-101219000D01*
X190677800Y-101930200D02*
X188341000Y-101930200D01*
X191389000Y-101219000D02*
X190677800Y-101930200D01*
X137668000Y-107950000D02*
X137668000Y-107860000D01*
X138393000Y-107860000D02*
X137668000Y-107860000D01*
X138831685Y-98298000D02*
X138831685Y-107421315D01*
X138831685Y-107421315D02*
X138393000Y-107860000D01*
G04 #@! TO.N,Net-(R1-Pad1)*
X129921000Y-100203000D02*
X129540000Y-100584000D01*
G04 #@! TO.N,Net-(U1-Pad2)*
X175133000Y-107315000D02*
X171932600Y-104114600D01*
X171932600Y-104114600D02*
X158013400Y-104114600D01*
X158013400Y-104114600D02*
X154178000Y-107950000D01*
X154178000Y-107950000D02*
X147320000Y-107950000D01*
X147320000Y-107950000D02*
X146975999Y-107605999D01*
X146975999Y-95286999D02*
X146942845Y-95320153D01*
X146962368Y-95302677D02*
X146942845Y-95283154D01*
X146975999Y-107569000D02*
X146962368Y-107555369D01*
X146962368Y-107555369D02*
X146962368Y-95302677D01*
G04 #@! TO.N,Net-(U1-Pad3)*
X140076501Y-104849121D02*
X140081000Y-104844622D01*
X140076501Y-105414806D02*
X140076501Y-104849121D01*
X140081000Y-104844622D02*
X140081000Y-99314000D01*
G04 #@! TO.N,Net-(U1-Pad5)*
X148336000Y-98552000D02*
X147701000Y-99187000D01*
X148336000Y-94615000D02*
X148336000Y-98552000D01*
G04 #@! TO.N,Net-(U1-Pad6)*
X170078400Y-92100400D02*
X170053000Y-92075000D01*
X170078400Y-96469200D02*
X170078400Y-92100400D01*
X166217600Y-100330000D02*
X170078400Y-96469200D01*
X150368000Y-100330000D02*
X152654000Y-100330000D01*
X152298400Y-100330000D02*
X152654000Y-100330000D01*
X152654000Y-100330000D02*
X166217600Y-100330000D01*
X150368000Y-100330000D02*
X147701000Y-100330000D01*
G04 #@! TO.N,Net-(U1-Pad7)*
X162433000Y-92075000D02*
X162433000Y-95808800D01*
X162433000Y-95808800D02*
X158991300Y-99250500D01*
X158991300Y-99250500D02*
X148844000Y-99250500D01*
G04 #@! TO.N,Net-(U1-Pad8)*
X142494000Y-101981000D02*
X142494000Y-96012000D01*
X142494000Y-96012000D02*
X141605000Y-95123000D01*
G04 #@! TO.N,Net-(U1-Pad10)*
X141478000Y-96774000D02*
X140716000Y-96139000D01*
X141732000Y-103632000D02*
X141478000Y-103378000D01*
X141478000Y-103378000D02*
X141478000Y-96774000D01*
G04 #@! TO.N,Net-(U1-Pad11)*
X172669200Y-95529400D02*
X166598600Y-101600000D01*
X172593000Y-92075000D02*
X172669200Y-92151200D01*
X172669200Y-92151200D02*
X172669200Y-95529400D01*
X148336000Y-102489000D02*
X150749000Y-102489000D01*
X151638000Y-101600000D02*
X152781000Y-101600000D01*
X166598600Y-101600000D02*
X152781000Y-101600000D01*
X150749000Y-102489000D02*
X151638000Y-101600000D01*
X152781000Y-101600000D02*
X152577800Y-101600000D01*
X148336000Y-106680000D02*
X148336000Y-102489000D01*
G04 #@! TO.N,Net-(U1-Pad14)*
X114173000Y-92075000D02*
X114173000Y-92202000D01*
X164973000Y-90855800D02*
X164973000Y-92075000D01*
X163544210Y-89427010D02*
X164973000Y-90855800D01*
X116312990Y-89427010D02*
X146812000Y-89427010D01*
X114173000Y-92075000D02*
X114173000Y-91567000D01*
X114173000Y-91567000D02*
X116312990Y-89427010D01*
X146812000Y-89427010D02*
X163544210Y-89427010D01*
X114173000Y-93135660D02*
X114173000Y-92075000D01*
X114173000Y-95377000D02*
X114173000Y-93135660D01*
X129794000Y-106680000D02*
X128233001Y-105119001D01*
X133350000Y-106680000D02*
X129794000Y-106680000D01*
X128233001Y-105119001D02*
X128233001Y-97245001D01*
X128233001Y-97245001D02*
X126655999Y-95667999D01*
X126655999Y-95667999D02*
X114463999Y-95667999D01*
X114463999Y-95667999D02*
X114173000Y-95377000D01*
G04 #@! TO.N,Net-(U1-Pad15)*
X167513000Y-92735400D02*
X167513000Y-92075000D01*
X166674800Y-93573600D02*
X167513000Y-92735400D01*
X164211000Y-93573600D02*
X166674800Y-93573600D01*
X116713000Y-92075000D02*
X116713000Y-91567000D01*
X162814000Y-90170000D02*
X163626800Y-90982800D01*
X116713000Y-91567000D02*
X118110000Y-90170000D01*
X118110000Y-90170000D02*
X162814000Y-90170000D01*
X163626800Y-90982800D02*
X163626800Y-92989400D01*
X163626800Y-92989400D02*
X164211000Y-93573600D01*
X126238000Y-96393000D02*
X117856000Y-96393000D01*
X127508000Y-105410000D02*
X127508000Y-97663000D01*
X127508000Y-97663000D02*
X126238000Y-96393000D01*
G04 #@! TO.N,Net-(U1-Pad16)*
X158895515Y-91135200D02*
X159461200Y-91135200D01*
X124333000Y-92075000D02*
X125272800Y-91135200D01*
X125272800Y-91135200D02*
X158895515Y-91135200D01*
X132715000Y-94361000D02*
X132715000Y-104140000D01*
G04 #@! TO.N,Net-(U1-Pad21)*
X111633000Y-108458000D02*
X111633000Y-107315000D01*
X112903000Y-109728000D02*
X111633000Y-108458000D01*
X155321000Y-109728000D02*
X112903000Y-109728000D01*
X162433000Y-107315000D02*
X157734000Y-107315000D01*
X157734000Y-107315000D02*
X155321000Y-109728000D01*
G04 #@! TO.N,Net-(U1-Pad22)*
X167513000Y-105841800D02*
X166700200Y-105029000D01*
X167513000Y-107315000D02*
X167513000Y-105841800D01*
X166700200Y-105029000D02*
X158496000Y-105029000D01*
X158496000Y-105029000D02*
X154940000Y-108585000D01*
X116713000Y-108204000D02*
X116713000Y-107315000D01*
X154940000Y-108585000D02*
X117094000Y-108585000D01*
X117094000Y-108585000D02*
X116713000Y-108204000D01*
X116967000Y-105283000D02*
X116713000Y-105537000D01*
X125476000Y-105283000D02*
X116967000Y-105283000D01*
X126365000Y-97790000D02*
X126365000Y-104394000D01*
X116713000Y-105537000D02*
X116713000Y-107315000D01*
X126365000Y-104394000D02*
X125476000Y-105283000D01*
G04 #@! TO.N,Net-(U1-Pad23)*
X114173000Y-108331000D02*
X114173000Y-107315000D01*
X164973000Y-106146600D02*
X164490400Y-105664000D01*
X164973000Y-107315000D02*
X164973000Y-106146600D01*
X164490400Y-105664000D02*
X158623000Y-105664000D01*
X158623000Y-105664000D02*
X155194000Y-109093000D01*
X155194000Y-109093000D02*
X114935000Y-109093000D01*
X114935000Y-109093000D02*
X114173000Y-108331000D01*
G04 #@! TD*
M02*
