M48
;DRILL file {KiCad (5.0.2)-1} date 12.03.2021 16:00:33
;FORMAT={-:-/ absolute / inch / decimal}
FMAT,2
INCH,TZ
T1C0.0157
T2C0.0315
T3C0.0394
T4C0.1260
%
G90
G05
T1
X4.64Y-3.795
X4.975Y-3.85
X5.02Y-4.15
X5.225Y-3.715
X5.225Y-4.1
X5.25Y-4.2
X5.415Y-3.95
X5.42Y-4.2465
X5.4658Y-3.87
X5.5148Y-4.1502
X5.515Y-3.91
X5.54Y-3.785
X5.575Y-3.745
X5.58Y-4.08
X5.61Y-4.015
X5.715Y-3.625
X5.7852Y-3.7528
X5.815Y-3.905
X5.815Y-3.95
X5.84Y-3.725
X5.84Y-4.2
X5.86Y-3.9075
X6.278Y-3.588
X6.315Y-3.695
X7.125Y-3.6
T2
X5.1Y-3.66
X5.1Y-3.96
X6.02Y-3.745
X6.02Y-3.8434
T3
X7.415Y-3.713
X7.415Y-3.813
X7.415Y-3.913
X7.415Y-4.013
X7.415Y-4.113
X4.395Y-3.625
X4.395Y-4.225
X4.495Y-3.625
X4.495Y-4.225
X4.595Y-3.625
X4.595Y-4.225
X4.695Y-3.625
X4.695Y-4.225
X4.795Y-3.625
X4.795Y-4.225
X4.895Y-3.625
X4.895Y-4.225
X6.395Y-3.625
X6.395Y-4.225
X6.495Y-3.625
X6.495Y-4.225
X6.595Y-3.625
X6.595Y-4.225
X6.695Y-3.625
X6.695Y-4.225
X6.795Y-3.625
X6.795Y-4.225
X6.895Y-3.625
X6.895Y-4.225
T4
X4.048Y-3.905
X7.175Y-3.899
T0
M30
