G04 #@! TF.GenerationSoftware,KiCad,Pcbnew,(5.0.2)-1*
G04 #@! TF.CreationDate,2021-03-12T16:00:43+02:00*
G04 #@! TF.ProjectId,MAX7219 SMD,4d415837-3231-4392-9053-4d442e6b6963,rev?*
G04 #@! TF.SameCoordinates,Original*
G04 #@! TF.FileFunction,Legend,Top*
G04 #@! TF.FilePolarity,Positive*
%FSLAX46Y46*%
G04 Gerber Fmt 4.6, Leading zero omitted, Abs format (unit mm)*
G04 Created by KiCad (PCBNEW (5.0.2)-1) date 12.03.2021 16:00:43*
%MOMM*%
%LPD*%
G01*
G04 APERTURE LIST*
%ADD10C,0.300000*%
%ADD11C,0.120000*%
%ADD12C,0.150000*%
G04 APERTURE END LIST*
D10*
X137428571Y-115678571D02*
X137714285Y-115678571D01*
X137857142Y-115607142D01*
X137928571Y-115535714D01*
X138071428Y-115321428D01*
X138142857Y-115035714D01*
X138142857Y-114464285D01*
X138071428Y-114321428D01*
X138000000Y-114250000D01*
X137857142Y-114178571D01*
X137571428Y-114178571D01*
X137428571Y-114250000D01*
X137357142Y-114321428D01*
X137285714Y-114464285D01*
X137285714Y-114821428D01*
X137357142Y-114964285D01*
X137428571Y-115035714D01*
X137571428Y-115107142D01*
X137857142Y-115107142D01*
X138000000Y-115035714D01*
X138071428Y-114964285D01*
X138142857Y-114821428D01*
X138857142Y-115678571D02*
X139142857Y-115678571D01*
X139285714Y-115607142D01*
X139357142Y-115535714D01*
X139500000Y-115321428D01*
X139571428Y-115035714D01*
X139571428Y-114464285D01*
X139500000Y-114321428D01*
X139428571Y-114250000D01*
X139285714Y-114178571D01*
X139000000Y-114178571D01*
X138857142Y-114250000D01*
X138785714Y-114321428D01*
X138714285Y-114464285D01*
X138714285Y-114821428D01*
X138785714Y-114964285D01*
X138857142Y-115035714D01*
X139000000Y-115107142D01*
X139285714Y-115107142D01*
X139428571Y-115035714D01*
X139500000Y-114964285D01*
X139571428Y-114821428D01*
X140214285Y-115535714D02*
X140285714Y-115607142D01*
X140214285Y-115678571D01*
X140142857Y-115607142D01*
X140214285Y-115535714D01*
X140214285Y-115678571D01*
X141214285Y-114178571D02*
X141357142Y-114178571D01*
X141500000Y-114250000D01*
X141571428Y-114321428D01*
X141642857Y-114464285D01*
X141714285Y-114750000D01*
X141714285Y-115107142D01*
X141642857Y-115392857D01*
X141571428Y-115535714D01*
X141500000Y-115607142D01*
X141357142Y-115678571D01*
X141214285Y-115678571D01*
X141071428Y-115607142D01*
X141000000Y-115535714D01*
X140928571Y-115392857D01*
X140857142Y-115107142D01*
X140857142Y-114750000D01*
X140928571Y-114464285D01*
X141000000Y-114321428D01*
X141071428Y-114250000D01*
X141214285Y-114178571D01*
X142642857Y-114178571D02*
X142785714Y-114178571D01*
X142928571Y-114250000D01*
X143000000Y-114321428D01*
X143071428Y-114464285D01*
X143142857Y-114750000D01*
X143142857Y-115107142D01*
X143071428Y-115392857D01*
X143000000Y-115535714D01*
X142928571Y-115607142D01*
X142785714Y-115678571D01*
X142642857Y-115678571D01*
X142500000Y-115607142D01*
X142428571Y-115535714D01*
X142357142Y-115392857D01*
X142285714Y-115107142D01*
X142285714Y-114750000D01*
X142357142Y-114464285D01*
X142428571Y-114321428D01*
X142500000Y-114250000D01*
X142642857Y-114178571D01*
X144071428Y-114178571D02*
X144214285Y-114178571D01*
X144357142Y-114250000D01*
X144428571Y-114321428D01*
X144500000Y-114464285D01*
X144571428Y-114750000D01*
X144571428Y-115107142D01*
X144500000Y-115392857D01*
X144428571Y-115535714D01*
X144357142Y-115607142D01*
X144214285Y-115678571D01*
X144071428Y-115678571D01*
X143928571Y-115607142D01*
X143857142Y-115535714D01*
X143785714Y-115392857D01*
X143714285Y-115107142D01*
X143714285Y-114750000D01*
X143785714Y-114464285D01*
X143857142Y-114321428D01*
X143928571Y-114250000D01*
X144071428Y-114178571D01*
X146357142Y-115678571D02*
X146357142Y-114678571D01*
X146357142Y-114821428D02*
X146428571Y-114750000D01*
X146571428Y-114678571D01*
X146785714Y-114678571D01*
X146928571Y-114750000D01*
X147000000Y-114892857D01*
X147000000Y-115678571D01*
X147000000Y-114892857D02*
X147071428Y-114750000D01*
X147214285Y-114678571D01*
X147428571Y-114678571D01*
X147571428Y-114750000D01*
X147642857Y-114892857D01*
X147642857Y-115678571D01*
X148357142Y-115678571D02*
X148357142Y-114678571D01*
X148357142Y-114821428D02*
X148428571Y-114750000D01*
X148571428Y-114678571D01*
X148785714Y-114678571D01*
X148928571Y-114750000D01*
X149000000Y-114892857D01*
X149000000Y-115678571D01*
X149000000Y-114892857D02*
X149071428Y-114750000D01*
X149214285Y-114678571D01*
X149428571Y-114678571D01*
X149571428Y-114750000D01*
X149642857Y-114892857D01*
X149642857Y-115678571D01*
X94000000Y-117000000D02*
X193000000Y-117000000D01*
X94000000Y-112000000D02*
X94000000Y-117586421D01*
X193000000Y-112000000D02*
X193000000Y-117586421D01*
X193000000Y-117000000D02*
X191873496Y-117586421D01*
X193000000Y-117000000D02*
X191873496Y-116413579D01*
X94000000Y-117000000D02*
X95126504Y-117586421D01*
X94000000Y-117000000D02*
X95126504Y-116413579D01*
X196321428Y-105714285D02*
X196250000Y-105642857D01*
X196178571Y-105500000D01*
X196178571Y-105142857D01*
X196250000Y-105000000D01*
X196321428Y-104928571D01*
X196464285Y-104857142D01*
X196607142Y-104857142D01*
X196821428Y-104928571D01*
X197678571Y-105785714D01*
X197678571Y-104857142D01*
X197678571Y-103428571D02*
X197678571Y-104285714D01*
X197678571Y-103857142D02*
X196178571Y-103857142D01*
X196392857Y-104000000D01*
X196535714Y-104142857D01*
X196607142Y-104285714D01*
X197535714Y-102785714D02*
X197607142Y-102714285D01*
X197678571Y-102785714D01*
X197607142Y-102857142D01*
X197535714Y-102785714D01*
X197678571Y-102785714D01*
X196178571Y-101785714D02*
X196178571Y-101642857D01*
X196250000Y-101500000D01*
X196321428Y-101428571D01*
X196464285Y-101357142D01*
X196750000Y-101285714D01*
X197107142Y-101285714D01*
X197392857Y-101357142D01*
X197535714Y-101428571D01*
X197607142Y-101500000D01*
X197678571Y-101642857D01*
X197678571Y-101785714D01*
X197607142Y-101928571D01*
X197535714Y-102000000D01*
X197392857Y-102071428D01*
X197107142Y-102142857D01*
X196750000Y-102142857D01*
X196464285Y-102071428D01*
X196321428Y-102000000D01*
X196250000Y-101928571D01*
X196178571Y-101785714D01*
X196178571Y-100357142D02*
X196178571Y-100214285D01*
X196250000Y-100071428D01*
X196321428Y-100000000D01*
X196464285Y-99928571D01*
X196750000Y-99857142D01*
X197107142Y-99857142D01*
X197392857Y-99928571D01*
X197535714Y-100000000D01*
X197607142Y-100071428D01*
X197678571Y-100214285D01*
X197678571Y-100357142D01*
X197607142Y-100500000D01*
X197535714Y-100571428D01*
X197392857Y-100642857D01*
X197107142Y-100714285D01*
X196750000Y-100714285D01*
X196464285Y-100642857D01*
X196321428Y-100571428D01*
X196250000Y-100500000D01*
X196178571Y-100357142D01*
X196178571Y-98928571D02*
X196178571Y-98785714D01*
X196250000Y-98642857D01*
X196321428Y-98571428D01*
X196464285Y-98500000D01*
X196750000Y-98428571D01*
X197107142Y-98428571D01*
X197392857Y-98500000D01*
X197535714Y-98571428D01*
X197607142Y-98642857D01*
X197678571Y-98785714D01*
X197678571Y-98928571D01*
X197607142Y-99071428D01*
X197535714Y-99142857D01*
X197392857Y-99214285D01*
X197107142Y-99285714D01*
X196750000Y-99285714D01*
X196464285Y-99214285D01*
X196321428Y-99142857D01*
X196250000Y-99071428D01*
X196178571Y-98928571D01*
X197678571Y-96642857D02*
X196678571Y-96642857D01*
X196821428Y-96642857D02*
X196750000Y-96571428D01*
X196678571Y-96428571D01*
X196678571Y-96214285D01*
X196750000Y-96071428D01*
X196892857Y-96000000D01*
X197678571Y-96000000D01*
X196892857Y-96000000D02*
X196750000Y-95928571D01*
X196678571Y-95785714D01*
X196678571Y-95571428D01*
X196750000Y-95428571D01*
X196892857Y-95357142D01*
X197678571Y-95357142D01*
X197678571Y-94642857D02*
X196678571Y-94642857D01*
X196821428Y-94642857D02*
X196750000Y-94571428D01*
X196678571Y-94428571D01*
X196678571Y-94214285D01*
X196750000Y-94071428D01*
X196892857Y-94000000D01*
X197678571Y-94000000D01*
X196892857Y-94000000D02*
X196750000Y-93928571D01*
X196678571Y-93785714D01*
X196678571Y-93571428D01*
X196750000Y-93428571D01*
X196892857Y-93357142D01*
X197678571Y-93357142D01*
X199000000Y-110000000D02*
X199000000Y-89000000D01*
X194000000Y-110000000D02*
X199586421Y-110000000D01*
X194000000Y-89000000D02*
X199586421Y-89000000D01*
X199000000Y-89000000D02*
X199586421Y-90126504D01*
X199000000Y-89000000D02*
X198413579Y-90126504D01*
X199000000Y-110000000D02*
X199586421Y-108873496D01*
X199000000Y-110000000D02*
X198413579Y-108873496D01*
D11*
G04 #@! TO.C,U3*
X110633000Y-109695000D02*
X112633000Y-109695000D01*
X143253000Y-90075000D02*
X92713000Y-90075000D01*
X143253000Y-109315000D02*
X143253000Y-90075000D01*
X92713000Y-109315000D02*
X143253000Y-109315000D01*
X92713000Y-109315000D02*
X92713000Y-90075000D01*
G04 #@! TO.C,U2*
X143513000Y-109315000D02*
X143513000Y-90075000D01*
X143513000Y-109315000D02*
X194053000Y-109315000D01*
X194053000Y-109315000D02*
X194053000Y-90075000D01*
X194053000Y-90075000D02*
X143513000Y-90075000D01*
X161433000Y-109695000D02*
X163433000Y-109695000D01*
G04 #@! TO.C,U3*
D12*
X107823095Y-98004380D02*
X107823095Y-98813904D01*
X107870714Y-98909142D01*
X107918333Y-98956761D01*
X108013571Y-99004380D01*
X108204047Y-99004380D01*
X108299285Y-98956761D01*
X108346904Y-98909142D01*
X108394523Y-98813904D01*
X108394523Y-98004380D01*
X108775476Y-98004380D02*
X109394523Y-98004380D01*
X109061190Y-98385333D01*
X109204047Y-98385333D01*
X109299285Y-98432952D01*
X109346904Y-98480571D01*
X109394523Y-98575809D01*
X109394523Y-98813904D01*
X109346904Y-98909142D01*
X109299285Y-98956761D01*
X109204047Y-99004380D01*
X108918333Y-99004380D01*
X108823095Y-98956761D01*
X108775476Y-98909142D01*
G04 #@! TO.C,U2*
X158750095Y-98385380D02*
X158750095Y-99194904D01*
X158797714Y-99290142D01*
X158845333Y-99337761D01*
X158940571Y-99385380D01*
X159131047Y-99385380D01*
X159226285Y-99337761D01*
X159273904Y-99290142D01*
X159321523Y-99194904D01*
X159321523Y-98385380D01*
X159750095Y-98480619D02*
X159797714Y-98433000D01*
X159892952Y-98385380D01*
X160131047Y-98385380D01*
X160226285Y-98433000D01*
X160273904Y-98480619D01*
X160321523Y-98575857D01*
X160321523Y-98671095D01*
X160273904Y-98813952D01*
X159702476Y-99385380D01*
X160321523Y-99385380D01*
G04 #@! TD*
M02*
