G04 #@! TF.GenerationSoftware,KiCad,Pcbnew,(5.0.2)-1*
G04 #@! TF.CreationDate,2021-03-12T16:00:43+02:00*
G04 #@! TF.ProjectId,MAX7219 SMD,4d415837-3231-4392-9053-4d442e6b6963,rev?*
G04 #@! TF.SameCoordinates,Original*
G04 #@! TF.FileFunction,Soldermask,Bot*
G04 #@! TF.FilePolarity,Negative*
%FSLAX46Y46*%
G04 Gerber Fmt 4.6, Leading zero omitted, Abs format (unit mm)*
G04 Created by KiCad (PCBNEW (5.0.2)-1) date 12.03.2021 16:00:43*
%MOMM*%
%LPD*%
G01*
G04 APERTURE LIST*
%ADD10C,0.100000*%
G04 APERTURE END LIST*
D10*
G36*
X146213000Y-108301000D02*
X144111000Y-108301000D01*
X144111000Y-107599000D01*
X146213000Y-107599000D01*
X146213000Y-108301000D01*
X146213000Y-108301000D01*
G37*
G36*
X136813000Y-108301000D02*
X134711000Y-108301000D01*
X134711000Y-107599000D01*
X136813000Y-107599000D01*
X136813000Y-108301000D01*
X136813000Y-108301000D01*
G37*
G36*
X122026643Y-106544781D02*
X122172415Y-106605162D01*
X122303611Y-106692824D01*
X122415176Y-106804389D01*
X122502838Y-106935585D01*
X122563219Y-107081357D01*
X122594000Y-107236107D01*
X122594000Y-107393893D01*
X122563219Y-107548643D01*
X122502838Y-107694415D01*
X122415176Y-107825611D01*
X122303611Y-107937176D01*
X122172415Y-108024838D01*
X122026643Y-108085219D01*
X121871893Y-108116000D01*
X121714107Y-108116000D01*
X121559357Y-108085219D01*
X121413585Y-108024838D01*
X121282389Y-107937176D01*
X121170824Y-107825611D01*
X121083162Y-107694415D01*
X121022781Y-107548643D01*
X120992000Y-107393893D01*
X120992000Y-107236107D01*
X121022781Y-107081357D01*
X121083162Y-106935585D01*
X121170824Y-106804389D01*
X121282389Y-106692824D01*
X121413585Y-106605162D01*
X121559357Y-106544781D01*
X121714107Y-106514000D01*
X121871893Y-106514000D01*
X122026643Y-106544781D01*
X122026643Y-106544781D01*
G37*
G36*
X119486643Y-106544781D02*
X119632415Y-106605162D01*
X119763611Y-106692824D01*
X119875176Y-106804389D01*
X119962838Y-106935585D01*
X120023219Y-107081357D01*
X120054000Y-107236107D01*
X120054000Y-107393893D01*
X120023219Y-107548643D01*
X119962838Y-107694415D01*
X119875176Y-107825611D01*
X119763611Y-107937176D01*
X119632415Y-108024838D01*
X119486643Y-108085219D01*
X119331893Y-108116000D01*
X119174107Y-108116000D01*
X119019357Y-108085219D01*
X118873585Y-108024838D01*
X118742389Y-107937176D01*
X118630824Y-107825611D01*
X118543162Y-107694415D01*
X118482781Y-107548643D01*
X118452000Y-107393893D01*
X118452000Y-107236107D01*
X118482781Y-107081357D01*
X118543162Y-106935585D01*
X118630824Y-106804389D01*
X118742389Y-106692824D01*
X118873585Y-106605162D01*
X119019357Y-106544781D01*
X119174107Y-106514000D01*
X119331893Y-106514000D01*
X119486643Y-106544781D01*
X119486643Y-106544781D01*
G37*
G36*
X116946643Y-106544781D02*
X117092415Y-106605162D01*
X117223611Y-106692824D01*
X117335176Y-106804389D01*
X117422838Y-106935585D01*
X117483219Y-107081357D01*
X117514000Y-107236107D01*
X117514000Y-107393893D01*
X117483219Y-107548643D01*
X117422838Y-107694415D01*
X117335176Y-107825611D01*
X117223611Y-107937176D01*
X117092415Y-108024838D01*
X116946643Y-108085219D01*
X116791893Y-108116000D01*
X116634107Y-108116000D01*
X116479357Y-108085219D01*
X116333585Y-108024838D01*
X116202389Y-107937176D01*
X116090824Y-107825611D01*
X116003162Y-107694415D01*
X115942781Y-107548643D01*
X115912000Y-107393893D01*
X115912000Y-107236107D01*
X115942781Y-107081357D01*
X116003162Y-106935585D01*
X116090824Y-106804389D01*
X116202389Y-106692824D01*
X116333585Y-106605162D01*
X116479357Y-106544781D01*
X116634107Y-106514000D01*
X116791893Y-106514000D01*
X116946643Y-106544781D01*
X116946643Y-106544781D01*
G37*
G36*
X114406643Y-106544781D02*
X114552415Y-106605162D01*
X114683611Y-106692824D01*
X114795176Y-106804389D01*
X114882838Y-106935585D01*
X114943219Y-107081357D01*
X114974000Y-107236107D01*
X114974000Y-107393893D01*
X114943219Y-107548643D01*
X114882838Y-107694415D01*
X114795176Y-107825611D01*
X114683611Y-107937176D01*
X114552415Y-108024838D01*
X114406643Y-108085219D01*
X114251893Y-108116000D01*
X114094107Y-108116000D01*
X113939357Y-108085219D01*
X113793585Y-108024838D01*
X113662389Y-107937176D01*
X113550824Y-107825611D01*
X113463162Y-107694415D01*
X113402781Y-107548643D01*
X113372000Y-107393893D01*
X113372000Y-107236107D01*
X113402781Y-107081357D01*
X113463162Y-106935585D01*
X113550824Y-106804389D01*
X113662389Y-106692824D01*
X113793585Y-106605162D01*
X113939357Y-106544781D01*
X114094107Y-106514000D01*
X114251893Y-106514000D01*
X114406643Y-106544781D01*
X114406643Y-106544781D01*
G37*
G36*
X112434000Y-108116000D02*
X110832000Y-108116000D01*
X110832000Y-106514000D01*
X112434000Y-106514000D01*
X112434000Y-108116000D01*
X112434000Y-108116000D01*
G37*
G36*
X163234000Y-108116000D02*
X161632000Y-108116000D01*
X161632000Y-106514000D01*
X163234000Y-106514000D01*
X163234000Y-108116000D01*
X163234000Y-108116000D01*
G37*
G36*
X165206643Y-106544781D02*
X165352415Y-106605162D01*
X165483611Y-106692824D01*
X165595176Y-106804389D01*
X165682838Y-106935585D01*
X165743219Y-107081357D01*
X165774000Y-107236107D01*
X165774000Y-107393893D01*
X165743219Y-107548643D01*
X165682838Y-107694415D01*
X165595176Y-107825611D01*
X165483611Y-107937176D01*
X165352415Y-108024838D01*
X165206643Y-108085219D01*
X165051893Y-108116000D01*
X164894107Y-108116000D01*
X164739357Y-108085219D01*
X164593585Y-108024838D01*
X164462389Y-107937176D01*
X164350824Y-107825611D01*
X164263162Y-107694415D01*
X164202781Y-107548643D01*
X164172000Y-107393893D01*
X164172000Y-107236107D01*
X164202781Y-107081357D01*
X164263162Y-106935585D01*
X164350824Y-106804389D01*
X164462389Y-106692824D01*
X164593585Y-106605162D01*
X164739357Y-106544781D01*
X164894107Y-106514000D01*
X165051893Y-106514000D01*
X165206643Y-106544781D01*
X165206643Y-106544781D01*
G37*
G36*
X167746643Y-106544781D02*
X167892415Y-106605162D01*
X168023611Y-106692824D01*
X168135176Y-106804389D01*
X168222838Y-106935585D01*
X168283219Y-107081357D01*
X168314000Y-107236107D01*
X168314000Y-107393893D01*
X168283219Y-107548643D01*
X168222838Y-107694415D01*
X168135176Y-107825611D01*
X168023611Y-107937176D01*
X167892415Y-108024838D01*
X167746643Y-108085219D01*
X167591893Y-108116000D01*
X167434107Y-108116000D01*
X167279357Y-108085219D01*
X167133585Y-108024838D01*
X167002389Y-107937176D01*
X166890824Y-107825611D01*
X166803162Y-107694415D01*
X166742781Y-107548643D01*
X166712000Y-107393893D01*
X166712000Y-107236107D01*
X166742781Y-107081357D01*
X166803162Y-106935585D01*
X166890824Y-106804389D01*
X167002389Y-106692824D01*
X167133585Y-106605162D01*
X167279357Y-106544781D01*
X167434107Y-106514000D01*
X167591893Y-106514000D01*
X167746643Y-106544781D01*
X167746643Y-106544781D01*
G37*
G36*
X170286643Y-106544781D02*
X170432415Y-106605162D01*
X170563611Y-106692824D01*
X170675176Y-106804389D01*
X170762838Y-106935585D01*
X170823219Y-107081357D01*
X170854000Y-107236107D01*
X170854000Y-107393893D01*
X170823219Y-107548643D01*
X170762838Y-107694415D01*
X170675176Y-107825611D01*
X170563611Y-107937176D01*
X170432415Y-108024838D01*
X170286643Y-108085219D01*
X170131893Y-108116000D01*
X169974107Y-108116000D01*
X169819357Y-108085219D01*
X169673585Y-108024838D01*
X169542389Y-107937176D01*
X169430824Y-107825611D01*
X169343162Y-107694415D01*
X169282781Y-107548643D01*
X169252000Y-107393893D01*
X169252000Y-107236107D01*
X169282781Y-107081357D01*
X169343162Y-106935585D01*
X169430824Y-106804389D01*
X169542389Y-106692824D01*
X169673585Y-106605162D01*
X169819357Y-106544781D01*
X169974107Y-106514000D01*
X170131893Y-106514000D01*
X170286643Y-106544781D01*
X170286643Y-106544781D01*
G37*
G36*
X172826643Y-106544781D02*
X172972415Y-106605162D01*
X173103611Y-106692824D01*
X173215176Y-106804389D01*
X173302838Y-106935585D01*
X173363219Y-107081357D01*
X173394000Y-107236107D01*
X173394000Y-107393893D01*
X173363219Y-107548643D01*
X173302838Y-107694415D01*
X173215176Y-107825611D01*
X173103611Y-107937176D01*
X172972415Y-108024838D01*
X172826643Y-108085219D01*
X172671893Y-108116000D01*
X172514107Y-108116000D01*
X172359357Y-108085219D01*
X172213585Y-108024838D01*
X172082389Y-107937176D01*
X171970824Y-107825611D01*
X171883162Y-107694415D01*
X171822781Y-107548643D01*
X171792000Y-107393893D01*
X171792000Y-107236107D01*
X171822781Y-107081357D01*
X171883162Y-106935585D01*
X171970824Y-106804389D01*
X172082389Y-106692824D01*
X172213585Y-106605162D01*
X172359357Y-106544781D01*
X172514107Y-106514000D01*
X172671893Y-106514000D01*
X172826643Y-106544781D01*
X172826643Y-106544781D01*
G37*
G36*
X175366643Y-106544781D02*
X175512415Y-106605162D01*
X175643611Y-106692824D01*
X175755176Y-106804389D01*
X175842838Y-106935585D01*
X175903219Y-107081357D01*
X175934000Y-107236107D01*
X175934000Y-107393893D01*
X175903219Y-107548643D01*
X175842838Y-107694415D01*
X175755176Y-107825611D01*
X175643611Y-107937176D01*
X175512415Y-108024838D01*
X175366643Y-108085219D01*
X175211893Y-108116000D01*
X175054107Y-108116000D01*
X174899357Y-108085219D01*
X174753585Y-108024838D01*
X174622389Y-107937176D01*
X174510824Y-107825611D01*
X174423162Y-107694415D01*
X174362781Y-107548643D01*
X174332000Y-107393893D01*
X174332000Y-107236107D01*
X174362781Y-107081357D01*
X174423162Y-106935585D01*
X174510824Y-106804389D01*
X174622389Y-106692824D01*
X174753585Y-106605162D01*
X174899357Y-106544781D01*
X175054107Y-106514000D01*
X175211893Y-106514000D01*
X175366643Y-106544781D01*
X175366643Y-106544781D01*
G37*
G36*
X124566643Y-106544781D02*
X124712415Y-106605162D01*
X124843611Y-106692824D01*
X124955176Y-106804389D01*
X125042838Y-106935585D01*
X125103219Y-107081357D01*
X125134000Y-107236107D01*
X125134000Y-107393893D01*
X125103219Y-107548643D01*
X125042838Y-107694415D01*
X124955176Y-107825611D01*
X124843611Y-107937176D01*
X124712415Y-108024838D01*
X124566643Y-108085219D01*
X124411893Y-108116000D01*
X124254107Y-108116000D01*
X124099357Y-108085219D01*
X123953585Y-108024838D01*
X123822389Y-107937176D01*
X123710824Y-107825611D01*
X123623162Y-107694415D01*
X123562781Y-107548643D01*
X123532000Y-107393893D01*
X123532000Y-107236107D01*
X123562781Y-107081357D01*
X123623162Y-106935585D01*
X123710824Y-106804389D01*
X123822389Y-106692824D01*
X123953585Y-106605162D01*
X124099357Y-106544781D01*
X124254107Y-106514000D01*
X124411893Y-106514000D01*
X124566643Y-106544781D01*
X124566643Y-106544781D01*
G37*
G36*
X136813000Y-107031000D02*
X134711000Y-107031000D01*
X134711000Y-106329000D01*
X136813000Y-106329000D01*
X136813000Y-107031000D01*
X136813000Y-107031000D01*
G37*
G36*
X146213000Y-107031000D02*
X144111000Y-107031000D01*
X144111000Y-106329000D01*
X146213000Y-106329000D01*
X146213000Y-107031000D01*
X146213000Y-107031000D01*
G37*
G36*
X136813000Y-105761000D02*
X134711000Y-105761000D01*
X134711000Y-105059000D01*
X136813000Y-105059000D01*
X136813000Y-105761000D01*
X136813000Y-105761000D01*
G37*
G36*
X146213000Y-105761000D02*
X144111000Y-105761000D01*
X144111000Y-105059000D01*
X146213000Y-105059000D01*
X146213000Y-105761000D01*
X146213000Y-105761000D01*
G37*
G36*
X188451442Y-103575718D02*
X188517627Y-103582237D01*
X188630853Y-103616584D01*
X188687467Y-103633757D01*
X188826087Y-103707852D01*
X188843991Y-103717422D01*
X188879729Y-103746752D01*
X188981186Y-103830014D01*
X189064448Y-103931471D01*
X189093778Y-103967209D01*
X189093779Y-103967211D01*
X189177443Y-104123733D01*
X189177443Y-104123734D01*
X189228963Y-104293573D01*
X189246359Y-104470200D01*
X189228963Y-104646827D01*
X189194616Y-104760053D01*
X189177443Y-104816667D01*
X189103348Y-104955287D01*
X189093778Y-104973191D01*
X189064448Y-105008929D01*
X188981186Y-105110386D01*
X188879729Y-105193648D01*
X188843991Y-105222978D01*
X188843989Y-105222979D01*
X188687467Y-105306643D01*
X188630853Y-105323816D01*
X188517627Y-105358163D01*
X188451443Y-105364681D01*
X188385260Y-105371200D01*
X188296740Y-105371200D01*
X188230557Y-105364681D01*
X188164373Y-105358163D01*
X188051147Y-105323816D01*
X187994533Y-105306643D01*
X187838011Y-105222979D01*
X187838009Y-105222978D01*
X187802271Y-105193648D01*
X187700814Y-105110386D01*
X187617552Y-105008929D01*
X187588222Y-104973191D01*
X187578652Y-104955287D01*
X187504557Y-104816667D01*
X187487384Y-104760053D01*
X187453037Y-104646827D01*
X187435641Y-104470200D01*
X187453037Y-104293573D01*
X187504557Y-104123734D01*
X187504557Y-104123733D01*
X187588221Y-103967211D01*
X187588222Y-103967209D01*
X187617552Y-103931471D01*
X187700814Y-103830014D01*
X187802271Y-103746752D01*
X187838009Y-103717422D01*
X187855913Y-103707852D01*
X187994533Y-103633757D01*
X188051147Y-103616584D01*
X188164373Y-103582237D01*
X188230558Y-103575718D01*
X188296740Y-103569200D01*
X188385260Y-103569200D01*
X188451442Y-103575718D01*
X188451442Y-103575718D01*
G37*
G36*
X136813000Y-104491000D02*
X134711000Y-104491000D01*
X134711000Y-103789000D01*
X136813000Y-103789000D01*
X136813000Y-104491000D01*
X136813000Y-104491000D01*
G37*
G36*
X146213000Y-104491000D02*
X144111000Y-104491000D01*
X144111000Y-103789000D01*
X146213000Y-103789000D01*
X146213000Y-104491000D01*
X146213000Y-104491000D01*
G37*
G36*
X146213000Y-103221000D02*
X144111000Y-103221000D01*
X144111000Y-102519000D01*
X146213000Y-102519000D01*
X146213000Y-103221000D01*
X146213000Y-103221000D01*
G37*
G36*
X136813000Y-103221000D02*
X134711000Y-103221000D01*
X134711000Y-102519000D01*
X136813000Y-102519000D01*
X136813000Y-103221000D01*
X136813000Y-103221000D01*
G37*
G36*
X188451443Y-101035719D02*
X188517627Y-101042237D01*
X188630853Y-101076584D01*
X188687467Y-101093757D01*
X188748688Y-101126481D01*
X188843991Y-101177422D01*
X188879729Y-101206752D01*
X188981186Y-101290014D01*
X189064448Y-101391471D01*
X189093778Y-101427209D01*
X189093779Y-101427211D01*
X189177443Y-101583733D01*
X189177443Y-101583734D01*
X189228963Y-101753573D01*
X189246359Y-101930200D01*
X189228963Y-102106827D01*
X189194616Y-102220053D01*
X189177443Y-102276667D01*
X189103348Y-102415287D01*
X189093778Y-102433191D01*
X189064448Y-102468929D01*
X188981186Y-102570386D01*
X188879729Y-102653648D01*
X188843991Y-102682978D01*
X188843989Y-102682979D01*
X188687467Y-102766643D01*
X188630853Y-102783816D01*
X188517627Y-102818163D01*
X188451443Y-102824681D01*
X188385260Y-102831200D01*
X188296740Y-102831200D01*
X188230558Y-102824682D01*
X188164373Y-102818163D01*
X188051147Y-102783816D01*
X187994533Y-102766643D01*
X187838011Y-102682979D01*
X187838009Y-102682978D01*
X187802271Y-102653648D01*
X187700814Y-102570386D01*
X187617552Y-102468929D01*
X187588222Y-102433191D01*
X187578652Y-102415287D01*
X187504557Y-102276667D01*
X187487384Y-102220053D01*
X187453037Y-102106827D01*
X187435641Y-101930200D01*
X187453037Y-101753573D01*
X187504557Y-101583734D01*
X187504557Y-101583733D01*
X187588221Y-101427211D01*
X187588222Y-101427209D01*
X187617552Y-101391471D01*
X187700814Y-101290014D01*
X187802271Y-101206752D01*
X187838009Y-101177422D01*
X187933312Y-101126481D01*
X187994533Y-101093757D01*
X188051147Y-101076584D01*
X188164373Y-101042237D01*
X188230557Y-101035719D01*
X188296740Y-101029200D01*
X188385260Y-101029200D01*
X188451443Y-101035719D01*
X188451443Y-101035719D01*
G37*
G36*
X146213000Y-101951000D02*
X144111000Y-101951000D01*
X144111000Y-101249000D01*
X146213000Y-101249000D01*
X146213000Y-101951000D01*
X146213000Y-101951000D01*
G37*
G36*
X136813000Y-101951000D02*
X134711000Y-101951000D01*
X134711000Y-101249000D01*
X136813000Y-101249000D01*
X136813000Y-101951000D01*
X136813000Y-101951000D01*
G37*
G36*
X129788228Y-99765703D02*
X129943100Y-99829853D01*
X130082481Y-99922985D01*
X130201015Y-100041519D01*
X130294147Y-100180900D01*
X130358297Y-100335772D01*
X130391000Y-100500184D01*
X130391000Y-100667816D01*
X130358297Y-100832228D01*
X130294147Y-100987100D01*
X130201015Y-101126481D01*
X130082481Y-101245015D01*
X129943100Y-101338147D01*
X129788228Y-101402297D01*
X129623816Y-101435000D01*
X129456184Y-101435000D01*
X129291772Y-101402297D01*
X129136900Y-101338147D01*
X128997519Y-101245015D01*
X128878985Y-101126481D01*
X128785853Y-100987100D01*
X128721703Y-100832228D01*
X128689000Y-100667816D01*
X128689000Y-100500184D01*
X128721703Y-100335772D01*
X128785853Y-100180900D01*
X128878985Y-100041519D01*
X128997519Y-99922985D01*
X129136900Y-99829853D01*
X129291772Y-99765703D01*
X129456184Y-99733000D01*
X129623816Y-99733000D01*
X129788228Y-99765703D01*
X129788228Y-99765703D01*
G37*
G36*
X136813000Y-100681000D02*
X134711000Y-100681000D01*
X134711000Y-99979000D01*
X136813000Y-99979000D01*
X136813000Y-100681000D01*
X136813000Y-100681000D01*
G37*
G36*
X146213000Y-100681000D02*
X144111000Y-100681000D01*
X144111000Y-99979000D01*
X146213000Y-99979000D01*
X146213000Y-100681000D01*
X146213000Y-100681000D01*
G37*
G36*
X188451443Y-98495719D02*
X188517627Y-98502237D01*
X188630853Y-98536584D01*
X188687467Y-98553757D01*
X188826087Y-98627852D01*
X188843991Y-98637422D01*
X188879729Y-98666752D01*
X188981186Y-98750014D01*
X189064448Y-98851471D01*
X189093778Y-98887209D01*
X189093779Y-98887211D01*
X189177443Y-99043733D01*
X189177443Y-99043734D01*
X189228963Y-99213573D01*
X189246359Y-99390200D01*
X189228963Y-99566827D01*
X189194616Y-99680053D01*
X189177443Y-99736667D01*
X189161922Y-99765704D01*
X189093778Y-99893191D01*
X189069326Y-99922986D01*
X188981186Y-100030386D01*
X188879729Y-100113648D01*
X188843991Y-100142978D01*
X188843989Y-100142979D01*
X188687467Y-100226643D01*
X188630853Y-100243816D01*
X188517627Y-100278163D01*
X188451443Y-100284681D01*
X188385260Y-100291200D01*
X188296740Y-100291200D01*
X188230557Y-100284681D01*
X188164373Y-100278163D01*
X188051147Y-100243816D01*
X187994533Y-100226643D01*
X187838011Y-100142979D01*
X187838009Y-100142978D01*
X187802271Y-100113648D01*
X187700814Y-100030386D01*
X187612674Y-99922986D01*
X187588222Y-99893191D01*
X187520078Y-99765704D01*
X187504557Y-99736667D01*
X187487384Y-99680053D01*
X187453037Y-99566827D01*
X187435641Y-99390200D01*
X187453037Y-99213573D01*
X187504557Y-99043734D01*
X187504557Y-99043733D01*
X187588221Y-98887211D01*
X187588222Y-98887209D01*
X187617552Y-98851471D01*
X187700814Y-98750014D01*
X187802271Y-98666752D01*
X187838009Y-98637422D01*
X187855913Y-98627852D01*
X187994533Y-98553757D01*
X188051147Y-98536584D01*
X188164373Y-98502237D01*
X188230558Y-98495718D01*
X188296740Y-98489200D01*
X188385260Y-98489200D01*
X188451443Y-98495719D01*
X188451443Y-98495719D01*
G37*
G36*
X146213000Y-99411000D02*
X144111000Y-99411000D01*
X144111000Y-98709000D01*
X146213000Y-98709000D01*
X146213000Y-99411000D01*
X146213000Y-99411000D01*
G37*
G36*
X136813000Y-99411000D02*
X134711000Y-99411000D01*
X134711000Y-98709000D01*
X136813000Y-98709000D01*
X136813000Y-99411000D01*
X136813000Y-99411000D01*
G37*
G36*
X153156228Y-96804703D02*
X153311100Y-96868853D01*
X153450481Y-96961985D01*
X153569015Y-97080519D01*
X153662147Y-97219900D01*
X153726297Y-97374772D01*
X153759000Y-97539184D01*
X153759000Y-97706816D01*
X153726297Y-97871228D01*
X153662147Y-98026100D01*
X153569015Y-98165481D01*
X153450481Y-98284015D01*
X153311100Y-98377147D01*
X153156228Y-98441297D01*
X152991816Y-98474000D01*
X152824184Y-98474000D01*
X152659772Y-98441297D01*
X152504900Y-98377147D01*
X152365519Y-98284015D01*
X152246985Y-98165481D01*
X152153853Y-98026100D01*
X152089703Y-97871228D01*
X152057000Y-97706816D01*
X152057000Y-97539184D01*
X152089703Y-97374772D01*
X152153853Y-97219900D01*
X152246985Y-97080519D01*
X152365519Y-96961985D01*
X152504900Y-96868853D01*
X152659772Y-96804703D01*
X152824184Y-96772000D01*
X152991816Y-96772000D01*
X153156228Y-96804703D01*
X153156228Y-96804703D01*
G37*
G36*
X146213000Y-98141000D02*
X144111000Y-98141000D01*
X144111000Y-97439000D01*
X146213000Y-97439000D01*
X146213000Y-98141000D01*
X146213000Y-98141000D01*
G37*
G36*
X136813000Y-98141000D02*
X134711000Y-98141000D01*
X134711000Y-97439000D01*
X136813000Y-97439000D01*
X136813000Y-98141000D01*
X136813000Y-98141000D01*
G37*
G36*
X188451442Y-95955718D02*
X188517627Y-95962237D01*
X188630853Y-95996584D01*
X188687467Y-96013757D01*
X188826087Y-96087852D01*
X188843991Y-96097422D01*
X188879729Y-96126752D01*
X188981186Y-96210014D01*
X189064448Y-96311471D01*
X189093778Y-96347209D01*
X189093779Y-96347211D01*
X189177443Y-96503733D01*
X189177443Y-96503734D01*
X189228963Y-96673573D01*
X189246359Y-96850200D01*
X189228963Y-97026827D01*
X189194616Y-97140053D01*
X189177443Y-97196667D01*
X189103348Y-97335287D01*
X189093778Y-97353191D01*
X189076067Y-97374772D01*
X188981186Y-97490386D01*
X188879729Y-97573648D01*
X188843991Y-97602978D01*
X188843989Y-97602979D01*
X188687467Y-97686643D01*
X188630853Y-97703816D01*
X188517627Y-97738163D01*
X188451442Y-97744682D01*
X188385260Y-97751200D01*
X188296740Y-97751200D01*
X188230558Y-97744682D01*
X188164373Y-97738163D01*
X188051147Y-97703816D01*
X187994533Y-97686643D01*
X187838011Y-97602979D01*
X187838009Y-97602978D01*
X187802271Y-97573648D01*
X187700814Y-97490386D01*
X187605933Y-97374772D01*
X187588222Y-97353191D01*
X187578652Y-97335287D01*
X187504557Y-97196667D01*
X187487384Y-97140053D01*
X187453037Y-97026827D01*
X187435641Y-96850200D01*
X187453037Y-96673573D01*
X187504557Y-96503734D01*
X187504557Y-96503733D01*
X187588221Y-96347211D01*
X187588222Y-96347209D01*
X187617552Y-96311471D01*
X187700814Y-96210014D01*
X187802271Y-96126752D01*
X187838009Y-96097422D01*
X187855913Y-96087852D01*
X187994533Y-96013757D01*
X188051147Y-95996584D01*
X188164373Y-95962237D01*
X188230558Y-95955718D01*
X188296740Y-95949200D01*
X188385260Y-95949200D01*
X188451442Y-95955718D01*
X188451442Y-95955718D01*
G37*
G36*
X136813000Y-96871000D02*
X134711000Y-96871000D01*
X134711000Y-96169000D01*
X136813000Y-96169000D01*
X136813000Y-96871000D01*
X136813000Y-96871000D01*
G37*
G36*
X146213000Y-96871000D02*
X144111000Y-96871000D01*
X144111000Y-96169000D01*
X146213000Y-96169000D01*
X146213000Y-96871000D01*
X146213000Y-96871000D01*
G37*
G36*
X153759000Y-95974000D02*
X152057000Y-95974000D01*
X152057000Y-94272000D01*
X153759000Y-94272000D01*
X153759000Y-95974000D01*
X153759000Y-95974000D01*
G37*
G36*
X136813000Y-95601000D02*
X134711000Y-95601000D01*
X134711000Y-94899000D01*
X136813000Y-94899000D01*
X136813000Y-95601000D01*
X136813000Y-95601000D01*
G37*
G36*
X146213000Y-95601000D02*
X144111000Y-95601000D01*
X144111000Y-94899000D01*
X146213000Y-94899000D01*
X146213000Y-95601000D01*
X146213000Y-95601000D01*
G37*
G36*
X189242000Y-95211200D02*
X187440000Y-95211200D01*
X187440000Y-93409200D01*
X189242000Y-93409200D01*
X189242000Y-95211200D01*
X189242000Y-95211200D01*
G37*
G36*
X136813000Y-94331000D02*
X134711000Y-94331000D01*
X134711000Y-93629000D01*
X136813000Y-93629000D01*
X136813000Y-94331000D01*
X136813000Y-94331000D01*
G37*
G36*
X146213000Y-94331000D02*
X144111000Y-94331000D01*
X144111000Y-93629000D01*
X146213000Y-93629000D01*
X146213000Y-94331000D01*
X146213000Y-94331000D01*
G37*
G36*
X129706821Y-92125313D02*
X129706824Y-92125314D01*
X129706825Y-92125314D01*
X129867239Y-92173975D01*
X129867241Y-92173976D01*
X129867244Y-92173977D01*
X130015078Y-92252995D01*
X130144659Y-92359341D01*
X130251005Y-92488922D01*
X130330023Y-92636756D01*
X130330024Y-92636759D01*
X130330025Y-92636761D01*
X130378686Y-92797175D01*
X130378687Y-92797179D01*
X130395117Y-92964000D01*
X130378687Y-93130821D01*
X130330023Y-93291244D01*
X130251005Y-93439078D01*
X130144659Y-93568659D01*
X130015078Y-93675005D01*
X129867244Y-93754023D01*
X129867241Y-93754024D01*
X129867239Y-93754025D01*
X129706825Y-93802686D01*
X129706824Y-93802686D01*
X129706821Y-93802687D01*
X129581804Y-93815000D01*
X129498196Y-93815000D01*
X129373179Y-93802687D01*
X129373176Y-93802686D01*
X129373175Y-93802686D01*
X129212761Y-93754025D01*
X129212759Y-93754024D01*
X129212756Y-93754023D01*
X129064922Y-93675005D01*
X128935341Y-93568659D01*
X128828995Y-93439078D01*
X128749977Y-93291244D01*
X128701313Y-93130821D01*
X128684883Y-92964000D01*
X128701313Y-92797179D01*
X128701314Y-92797175D01*
X128749975Y-92636761D01*
X128749976Y-92636759D01*
X128749977Y-92636756D01*
X128828995Y-92488922D01*
X128935341Y-92359341D01*
X129064922Y-92252995D01*
X129212756Y-92173977D01*
X129212759Y-92173976D01*
X129212761Y-92173975D01*
X129373175Y-92125314D01*
X129373176Y-92125314D01*
X129373179Y-92125313D01*
X129498196Y-92113000D01*
X129581804Y-92113000D01*
X129706821Y-92125313D01*
X129706821Y-92125313D01*
G37*
G36*
X175366643Y-91304781D02*
X175512415Y-91365162D01*
X175643611Y-91452824D01*
X175755176Y-91564389D01*
X175842838Y-91695585D01*
X175903219Y-91841357D01*
X175934000Y-91996107D01*
X175934000Y-92153893D01*
X175903219Y-92308643D01*
X175842838Y-92454415D01*
X175755176Y-92585611D01*
X175643611Y-92697176D01*
X175512415Y-92784838D01*
X175366643Y-92845219D01*
X175211893Y-92876000D01*
X175054107Y-92876000D01*
X174899357Y-92845219D01*
X174753585Y-92784838D01*
X174622389Y-92697176D01*
X174510824Y-92585611D01*
X174423162Y-92454415D01*
X174362781Y-92308643D01*
X174332000Y-92153893D01*
X174332000Y-91996107D01*
X174362781Y-91841357D01*
X174423162Y-91695585D01*
X174510824Y-91564389D01*
X174622389Y-91452824D01*
X174753585Y-91365162D01*
X174899357Y-91304781D01*
X175054107Y-91274000D01*
X175211893Y-91274000D01*
X175366643Y-91304781D01*
X175366643Y-91304781D01*
G37*
G36*
X172826643Y-91304781D02*
X172972415Y-91365162D01*
X173103611Y-91452824D01*
X173215176Y-91564389D01*
X173302838Y-91695585D01*
X173363219Y-91841357D01*
X173394000Y-91996107D01*
X173394000Y-92153893D01*
X173363219Y-92308643D01*
X173302838Y-92454415D01*
X173215176Y-92585611D01*
X173103611Y-92697176D01*
X172972415Y-92784838D01*
X172826643Y-92845219D01*
X172671893Y-92876000D01*
X172514107Y-92876000D01*
X172359357Y-92845219D01*
X172213585Y-92784838D01*
X172082389Y-92697176D01*
X171970824Y-92585611D01*
X171883162Y-92454415D01*
X171822781Y-92308643D01*
X171792000Y-92153893D01*
X171792000Y-91996107D01*
X171822781Y-91841357D01*
X171883162Y-91695585D01*
X171970824Y-91564389D01*
X172082389Y-91452824D01*
X172213585Y-91365162D01*
X172359357Y-91304781D01*
X172514107Y-91274000D01*
X172671893Y-91274000D01*
X172826643Y-91304781D01*
X172826643Y-91304781D01*
G37*
G36*
X170286643Y-91304781D02*
X170432415Y-91365162D01*
X170563611Y-91452824D01*
X170675176Y-91564389D01*
X170762838Y-91695585D01*
X170823219Y-91841357D01*
X170854000Y-91996107D01*
X170854000Y-92153893D01*
X170823219Y-92308643D01*
X170762838Y-92454415D01*
X170675176Y-92585611D01*
X170563611Y-92697176D01*
X170432415Y-92784838D01*
X170286643Y-92845219D01*
X170131893Y-92876000D01*
X169974107Y-92876000D01*
X169819357Y-92845219D01*
X169673585Y-92784838D01*
X169542389Y-92697176D01*
X169430824Y-92585611D01*
X169343162Y-92454415D01*
X169282781Y-92308643D01*
X169252000Y-92153893D01*
X169252000Y-91996107D01*
X169282781Y-91841357D01*
X169343162Y-91695585D01*
X169430824Y-91564389D01*
X169542389Y-91452824D01*
X169673585Y-91365162D01*
X169819357Y-91304781D01*
X169974107Y-91274000D01*
X170131893Y-91274000D01*
X170286643Y-91304781D01*
X170286643Y-91304781D01*
G37*
G36*
X162666643Y-91304781D02*
X162812415Y-91365162D01*
X162943611Y-91452824D01*
X163055176Y-91564389D01*
X163142838Y-91695585D01*
X163203219Y-91841357D01*
X163234000Y-91996107D01*
X163234000Y-92153893D01*
X163203219Y-92308643D01*
X163142838Y-92454415D01*
X163055176Y-92585611D01*
X162943611Y-92697176D01*
X162812415Y-92784838D01*
X162666643Y-92845219D01*
X162511893Y-92876000D01*
X162354107Y-92876000D01*
X162199357Y-92845219D01*
X162053585Y-92784838D01*
X161922389Y-92697176D01*
X161810824Y-92585611D01*
X161723162Y-92454415D01*
X161662781Y-92308643D01*
X161632000Y-92153893D01*
X161632000Y-91996107D01*
X161662781Y-91841357D01*
X161723162Y-91695585D01*
X161810824Y-91564389D01*
X161922389Y-91452824D01*
X162053585Y-91365162D01*
X162199357Y-91304781D01*
X162354107Y-91274000D01*
X162511893Y-91274000D01*
X162666643Y-91304781D01*
X162666643Y-91304781D01*
G37*
G36*
X122026643Y-91304781D02*
X122172415Y-91365162D01*
X122303611Y-91452824D01*
X122415176Y-91564389D01*
X122502838Y-91695585D01*
X122563219Y-91841357D01*
X122594000Y-91996107D01*
X122594000Y-92153893D01*
X122563219Y-92308643D01*
X122502838Y-92454415D01*
X122415176Y-92585611D01*
X122303611Y-92697176D01*
X122172415Y-92784838D01*
X122026643Y-92845219D01*
X121871893Y-92876000D01*
X121714107Y-92876000D01*
X121559357Y-92845219D01*
X121413585Y-92784838D01*
X121282389Y-92697176D01*
X121170824Y-92585611D01*
X121083162Y-92454415D01*
X121022781Y-92308643D01*
X120992000Y-92153893D01*
X120992000Y-91996107D01*
X121022781Y-91841357D01*
X121083162Y-91695585D01*
X121170824Y-91564389D01*
X121282389Y-91452824D01*
X121413585Y-91365162D01*
X121559357Y-91304781D01*
X121714107Y-91274000D01*
X121871893Y-91274000D01*
X122026643Y-91304781D01*
X122026643Y-91304781D01*
G37*
G36*
X124566643Y-91304781D02*
X124712415Y-91365162D01*
X124843611Y-91452824D01*
X124955176Y-91564389D01*
X125042838Y-91695585D01*
X125103219Y-91841357D01*
X125134000Y-91996107D01*
X125134000Y-92153893D01*
X125103219Y-92308643D01*
X125042838Y-92454415D01*
X124955176Y-92585611D01*
X124843611Y-92697176D01*
X124712415Y-92784838D01*
X124566643Y-92845219D01*
X124411893Y-92876000D01*
X124254107Y-92876000D01*
X124099357Y-92845219D01*
X123953585Y-92784838D01*
X123822389Y-92697176D01*
X123710824Y-92585611D01*
X123623162Y-92454415D01*
X123562781Y-92308643D01*
X123532000Y-92153893D01*
X123532000Y-91996107D01*
X123562781Y-91841357D01*
X123623162Y-91695585D01*
X123710824Y-91564389D01*
X123822389Y-91452824D01*
X123953585Y-91365162D01*
X124099357Y-91304781D01*
X124254107Y-91274000D01*
X124411893Y-91274000D01*
X124566643Y-91304781D01*
X124566643Y-91304781D01*
G37*
G36*
X119486643Y-91304781D02*
X119632415Y-91365162D01*
X119763611Y-91452824D01*
X119875176Y-91564389D01*
X119962838Y-91695585D01*
X120023219Y-91841357D01*
X120054000Y-91996107D01*
X120054000Y-92153893D01*
X120023219Y-92308643D01*
X119962838Y-92454415D01*
X119875176Y-92585611D01*
X119763611Y-92697176D01*
X119632415Y-92784838D01*
X119486643Y-92845219D01*
X119331893Y-92876000D01*
X119174107Y-92876000D01*
X119019357Y-92845219D01*
X118873585Y-92784838D01*
X118742389Y-92697176D01*
X118630824Y-92585611D01*
X118543162Y-92454415D01*
X118482781Y-92308643D01*
X118452000Y-92153893D01*
X118452000Y-91996107D01*
X118482781Y-91841357D01*
X118543162Y-91695585D01*
X118630824Y-91564389D01*
X118742389Y-91452824D01*
X118873585Y-91365162D01*
X119019357Y-91304781D01*
X119174107Y-91274000D01*
X119331893Y-91274000D01*
X119486643Y-91304781D01*
X119486643Y-91304781D01*
G37*
G36*
X116946643Y-91304781D02*
X117092415Y-91365162D01*
X117223611Y-91452824D01*
X117335176Y-91564389D01*
X117422838Y-91695585D01*
X117483219Y-91841357D01*
X117514000Y-91996107D01*
X117514000Y-92153893D01*
X117483219Y-92308643D01*
X117422838Y-92454415D01*
X117335176Y-92585611D01*
X117223611Y-92697176D01*
X117092415Y-92784838D01*
X116946643Y-92845219D01*
X116791893Y-92876000D01*
X116634107Y-92876000D01*
X116479357Y-92845219D01*
X116333585Y-92784838D01*
X116202389Y-92697176D01*
X116090824Y-92585611D01*
X116003162Y-92454415D01*
X115942781Y-92308643D01*
X115912000Y-92153893D01*
X115912000Y-91996107D01*
X115942781Y-91841357D01*
X116003162Y-91695585D01*
X116090824Y-91564389D01*
X116202389Y-91452824D01*
X116333585Y-91365162D01*
X116479357Y-91304781D01*
X116634107Y-91274000D01*
X116791893Y-91274000D01*
X116946643Y-91304781D01*
X116946643Y-91304781D01*
G37*
G36*
X114406643Y-91304781D02*
X114552415Y-91365162D01*
X114683611Y-91452824D01*
X114795176Y-91564389D01*
X114882838Y-91695585D01*
X114943219Y-91841357D01*
X114974000Y-91996107D01*
X114974000Y-92153893D01*
X114943219Y-92308643D01*
X114882838Y-92454415D01*
X114795176Y-92585611D01*
X114683611Y-92697176D01*
X114552415Y-92784838D01*
X114406643Y-92845219D01*
X114251893Y-92876000D01*
X114094107Y-92876000D01*
X113939357Y-92845219D01*
X113793585Y-92784838D01*
X113662389Y-92697176D01*
X113550824Y-92585611D01*
X113463162Y-92454415D01*
X113402781Y-92308643D01*
X113372000Y-92153893D01*
X113372000Y-91996107D01*
X113402781Y-91841357D01*
X113463162Y-91695585D01*
X113550824Y-91564389D01*
X113662389Y-91452824D01*
X113793585Y-91365162D01*
X113939357Y-91304781D01*
X114094107Y-91274000D01*
X114251893Y-91274000D01*
X114406643Y-91304781D01*
X114406643Y-91304781D01*
G37*
G36*
X111866643Y-91304781D02*
X112012415Y-91365162D01*
X112143611Y-91452824D01*
X112255176Y-91564389D01*
X112342838Y-91695585D01*
X112403219Y-91841357D01*
X112434000Y-91996107D01*
X112434000Y-92153893D01*
X112403219Y-92308643D01*
X112342838Y-92454415D01*
X112255176Y-92585611D01*
X112143611Y-92697176D01*
X112012415Y-92784838D01*
X111866643Y-92845219D01*
X111711893Y-92876000D01*
X111554107Y-92876000D01*
X111399357Y-92845219D01*
X111253585Y-92784838D01*
X111122389Y-92697176D01*
X111010824Y-92585611D01*
X110923162Y-92454415D01*
X110862781Y-92308643D01*
X110832000Y-92153893D01*
X110832000Y-91996107D01*
X110862781Y-91841357D01*
X110923162Y-91695585D01*
X111010824Y-91564389D01*
X111122389Y-91452824D01*
X111253585Y-91365162D01*
X111399357Y-91304781D01*
X111554107Y-91274000D01*
X111711893Y-91274000D01*
X111866643Y-91304781D01*
X111866643Y-91304781D01*
G37*
G36*
X165206643Y-91304781D02*
X165352415Y-91365162D01*
X165483611Y-91452824D01*
X165595176Y-91564389D01*
X165682838Y-91695585D01*
X165743219Y-91841357D01*
X165774000Y-91996107D01*
X165774000Y-92153893D01*
X165743219Y-92308643D01*
X165682838Y-92454415D01*
X165595176Y-92585611D01*
X165483611Y-92697176D01*
X165352415Y-92784838D01*
X165206643Y-92845219D01*
X165051893Y-92876000D01*
X164894107Y-92876000D01*
X164739357Y-92845219D01*
X164593585Y-92784838D01*
X164462389Y-92697176D01*
X164350824Y-92585611D01*
X164263162Y-92454415D01*
X164202781Y-92308643D01*
X164172000Y-92153893D01*
X164172000Y-91996107D01*
X164202781Y-91841357D01*
X164263162Y-91695585D01*
X164350824Y-91564389D01*
X164462389Y-91452824D01*
X164593585Y-91365162D01*
X164739357Y-91304781D01*
X164894107Y-91274000D01*
X165051893Y-91274000D01*
X165206643Y-91304781D01*
X165206643Y-91304781D01*
G37*
G36*
X167746643Y-91304781D02*
X167892415Y-91365162D01*
X168023611Y-91452824D01*
X168135176Y-91564389D01*
X168222838Y-91695585D01*
X168283219Y-91841357D01*
X168314000Y-91996107D01*
X168314000Y-92153893D01*
X168283219Y-92308643D01*
X168222838Y-92454415D01*
X168135176Y-92585611D01*
X168023611Y-92697176D01*
X167892415Y-92784838D01*
X167746643Y-92845219D01*
X167591893Y-92876000D01*
X167434107Y-92876000D01*
X167279357Y-92845219D01*
X167133585Y-92784838D01*
X167002389Y-92697176D01*
X166890824Y-92585611D01*
X166803162Y-92454415D01*
X166742781Y-92308643D01*
X166712000Y-92153893D01*
X166712000Y-91996107D01*
X166742781Y-91841357D01*
X166803162Y-91695585D01*
X166890824Y-91564389D01*
X167002389Y-91452824D01*
X167133585Y-91365162D01*
X167279357Y-91304781D01*
X167434107Y-91274000D01*
X167591893Y-91274000D01*
X167746643Y-91304781D01*
X167746643Y-91304781D01*
G37*
M02*
